<svg id="svg" version="1.1" xmlns="http://www.w3.org/2000/svg" xmlns:xlink="http://www.w3.org/1999/xlink" width="400" height="651.4285714285714" viewBox="0, 0, 400,651.4285714285714"><g id="svgg"><path id="path0" d="M194.000 104.393 C 192.790 104.573,189.640 104.738,187.000 104.758 C 179.640 104.816,171.948 105.625,171.075 106.434 C 168.945 108.408,165.379 109.663,160.950 109.997 C 151.880 110.682,149.594 111.186,148.893 112.656 C 148.242 114.021,147.696 114.312,143.800 115.369 C 138.377 116.841,137.272 117.305,136.407 118.477 C 135.028 120.342,133.279 121.195,130.800 121.213 C 126.404 121.245,125.238 124.447,127.440 130.442 C 127.795 131.409,128.181 133.966,128.298 136.125 L 128.509 140.050 130.008 140.650 C 131.815 141.373,132.624 143.497,133.038 148.600 C 133.441 153.570,134.521 157.770,135.440 157.941 C 137.325 158.292,137.598 158.879,139.233 166.100 C 139.718 168.245,140.314 170.001,140.558 170.002 C 142.371 170.010,144.800 174.769,144.800 178.312 C 144.800 180.611,145.319 181.477,146.897 181.812 C 148.594 182.173,149.492 182.996,149.821 184.495 C 149.967 185.162,150.424 186.448,150.835 187.354 C 151.246 188.259,151.586 189.464,151.591 190.032 C 151.598 190.854,151.944 191.219,153.300 191.832 C 154.877 192.544,155.045 192.774,155.617 195.000 C 155.956 196.320,156.721 198.339,157.317 199.487 C 157.913 200.634,158.403 202.074,158.406 202.687 C 158.409 203.299,158.565 204.042,158.752 204.337 C 159.398 205.356,159.564 202.724,159.482 192.800 C 159.405 183.580,159.450 182.894,160.242 181.200 C 161.979 177.486,159.039 177.815,191.619 177.690 C 222.757 177.570,223.625 177.619,228.128 179.748 C 229.268 180.287,230.920 180.843,231.800 180.984 C 237.102 181.835,243.387 184.201,244.943 185.932 C 245.352 186.387,246.826 187.127,248.219 187.577 C 251.328 188.581,258.377 193.627,262.780 198.000 C 264.441 199.650,266.141 201.180,266.557 201.400 C 266.974 201.620,267.604 202.340,267.958 203.000 C 269.693 206.236,270.765 207.779,272.943 210.174 C 273.792 211.108,274.827 212.845,275.244 214.036 C 275.660 215.226,276.540 216.970,277.200 217.912 C 277.860 218.853,278.400 219.770,278.400 219.950 C 278.400 220.130,278.677 220.832,279.015 221.511 C 281.817 227.127,284.458 248.893,283.248 256.400 C 283.017 257.830,282.539 260.980,282.185 263.400 C 281.204 270.112,279.595 276.833,278.742 277.780 C 278.554 277.989,278.400 278.427,278.400 278.754 C 278.400 279.081,278.064 279.720,277.653 280.174 C 275.898 282.116,275.091 286.146,276.760 284.636 C 277.488 283.977,277.750 283.993,282.063 284.954 C 284.558 285.510,288.940 286.243,291.800 286.583 C 294.660 286.922,299.160 287.466,301.800 287.791 C 304.440 288.116,308.040 288.345,309.800 288.300 C 311.752 288.251,314.014 288.480,315.600 288.889 C 319.917 290.001,323.430 290.163,326.600 289.397 C 328.184 289.014,331.887 288.626,335.128 288.504 C 338.515 288.376,341.048 288.105,341.328 287.839 C 341.587 287.593,342.285 287.176,342.879 286.914 C 343.472 286.651,344.708 285.759,345.625 284.930 L 347.293 283.423 347.057 280.491 C 346.700 276.083,345.583 272.889,343.946 271.600 C 343.806 271.490,343.826 270.527,343.989 269.459 C 344.250 267.749,344.655 267.092,345.684 266.707 C 347.546 266.009,347.316 230.943,345.440 229.400 C 343.997 228.213,343.141 225.100,342.174 217.535 C 340.570 204.969,340.236 203.096,339.558 202.835 C 337.166 201.916,336.784 201.107,335.685 194.632 C 334.658 188.577,334.604 188.416,333.484 187.952 C 332.251 187.441,330.763 184.661,330.245 181.898 C 329.731 179.162,328.841 177.573,327.572 177.130 C 326.206 176.654,325.143 174.773,324.393 171.503 C 323.672 168.362,323.295 167.600,322.463 167.600 C 321.061 167.600,319.655 166.045,318.920 163.683 C 318.138 161.167,317.460 160.241,316.093 159.821 C 315.594 159.667,314.919 158.970,314.592 158.271 C 314.265 157.572,313.464 156.280,312.812 155.400 C 312.160 154.520,311.621 153.431,311.613 152.980 C 311.596 151.920,310.860 151.200,309.795 151.200 C 308.821 151.200,307.211 149.624,306.117 147.600 C 305.631 146.699,304.726 145.897,303.581 145.350 C 302.220 144.701,301.564 144.041,300.800 142.556 C 300.037 141.073,299.336 140.368,297.840 139.580 C 296.762 139.012,294.866 137.607,293.627 136.458 C 290.975 134.000,289.639 133.066,287.214 131.973 C 285.231 131.080,284.815 130.620,284.806 129.308 C 284.802 128.662,284.495 128.347,283.700 128.170 C 279.446 127.224,278.915 126.919,277.735 124.751 C 277.151 123.678,276.386 122.800,276.036 122.800 C 275.686 122.800,274.453 122.440,273.296 122.000 C 272.138 121.560,270.603 121.200,269.885 121.200 C 268.243 121.200,266.869 120.256,266.202 118.670 C 265.712 117.505,265.425 117.379,260.509 116.168 C 255.224 114.866,252.268 113.476,251.826 112.083 C 251.624 111.446,250.754 111.236,245.895 110.652 C 234.756 109.313,232.268 108.608,231.777 106.652 C 231.555 105.768,231.303 105.697,227.471 105.437 C 212.967 104.455,196.942 103.955,194.000 104.393 M386.800 165.181 C 387.570 165.592,388.543 166.574,388.963 167.364 C 389.383 168.154,389.882 168.800,390.073 168.800 C 390.574 168.800,389.285 166.448,388.177 165.341 C 387.660 164.823,386.823 164.408,386.318 164.418 C 385.524 164.433,385.588 164.536,386.800 165.181 M232.600 170.300 C 233.480 170.532,235.060 170.897,236.112 171.111 C 237.486 171.392,238.426 171.915,239.457 172.977 C 240.766 174.325,241.207 174.505,244.526 175.042 C 249.243 175.804,251.248 176.881,251.727 178.908 C 252.136 180.639,252.657 180.992,255.316 181.339 C 257.985 181.687,258.758 182.203,259.656 184.234 C 260.086 185.205,260.626 186.000,260.857 186.000 C 261.904 186.000,267.229 188.895,267.877 189.816 C 269.589 192.248,271.352 194.235,272.204 194.692 C 273.111 195.179,275.737 198.519,277.531 201.469 C 278.043 202.311,279.142 203.475,279.974 204.055 C 281.299 204.981,281.520 205.371,281.765 207.224 C 282.113 209.846,282.525 210.642,283.689 210.944 C 285.794 211.489,287.286 215.075,288.019 221.347 L 288.528 225.694 289.876 226.258 C 291.395 226.892,292.600 228.611,292.993 230.702 C 293.288 232.278,294.692 234.400,295.440 234.400 C 295.904 234.400,297.334 235.928,298.200 237.350 C 298.438 237.740,299.574 238.182,301.000 238.439 C 304.073 238.993,307.918 240.854,309.200 242.408 C 309.906 243.264,310.670 243.686,311.800 243.844 C 315.336 244.338,317.601 245.586,319.037 247.830 C 320.365 249.906,322.171 250.800,325.040 250.800 C 326.216 250.800,327.920 251.993,328.306 253.088 C 328.610 253.951,329.314 254.463,331.449 255.374 C 335.874 257.263,337.025 258.498,336.731 261.048 C 336.554 262.579,334.755 263.570,334.314 262.379 C 333.948 261.391,332.448 260.802,330.274 260.794 C 328.069 260.786,327.763 260.527,327.490 258.442 C 327.236 256.493,326.850 256.113,324.800 255.793 C 324.030 255.673,322.590 255.310,321.600 254.986 C 320.610 254.661,319.431 254.397,318.980 254.398 C 318.129 254.400,317.200 252.585,317.200 250.918 C 317.200 250.210,316.872 250.055,314.900 249.830 C 313.635 249.687,311.760 249.366,310.734 249.117 L 308.868 248.666 308.590 245.898 C 308.330 243.313,308.255 243.146,307.456 243.379 C 303.198 244.620,296.647 243.843,296.198 242.043 C 295.778 240.360,294.890 239.640,293.466 239.831 C 290.200 240.268,288.400 240.254,288.400 239.793 C 288.400 239.531,287.959 238.841,287.420 238.260 C 286.502 237.269,286.446 236.951,286.520 233.169 C 286.607 228.760,286.037 227.600,283.780 227.600 C 282.972 227.600,282.816 227.350,282.595 225.700 C 282.455 224.655,282.174 222.822,281.971 221.627 C 281.767 220.431,281.600 218.498,281.600 217.330 C 281.600 214.856,280.677 213.486,278.537 212.779 C 277.731 212.513,277.199 212.072,277.199 211.669 C 277.198 211.301,276.865 210.456,276.460 209.792 C 276.055 209.127,275.601 207.930,275.451 207.132 C 275.138 205.464,274.672 204.979,272.998 204.577 C 271.197 204.145,270.913 203.769,270.621 201.429 C 270.296 198.831,269.480 197.978,267.054 197.705 C 265.285 197.506,265.275 197.496,265.001 195.652 C 264.648 193.284,264.321 192.918,262.277 192.609 C 259.464 192.183,258.921 191.735,258.639 189.610 C 258.387 187.711,258.383 187.706,256.609 187.463 C 251.454 186.757,249.609 185.694,248.324 182.694 C 247.931 181.778,246.369 181.200,244.286 181.200 C 241.079 181.200,238.400 180.333,238.400 179.295 C 238.400 177.951,237.333 176.535,235.874 175.943 C 234.878 175.539,226.397 175.380,197.000 175.213 C 176.320 175.096,159.175 174.854,158.900 174.676 C 157.491 173.764,158.831 171.283,161.333 170.170 C 162.923 169.464,229.884 169.586,232.600 170.300 M189.142 202.041 C 186.911 203.370,185.799 207.398,186.382 212.042 C 186.612 213.878,186.800 218.465,186.800 222.238 C 186.800 228.200,187.713 240.412,188.220 241.233 C 188.316 241.388,189.155 241.345,190.085 241.136 L 191.774 240.757 193.987 243.109 C 196.241 245.506,198.831 247.600,199.540 247.600 C 199.756 247.600,200.503 248.320,201.200 249.200 C 201.897 250.080,202.730 250.800,203.051 250.800 C 203.632 250.800,206.296 252.670,210.316 255.900 C 211.479 256.835,212.768 257.600,213.179 257.600 C 213.590 257.600,215.698 258.792,217.863 260.248 C 220.028 261.705,222.951 263.419,224.358 264.057 C 225.764 264.696,227.525 265.754,228.271 266.409 C 229.017 267.064,229.847 267.600,230.114 267.601 C 230.793 267.601,239.820 271.296,242.720 272.760 C 244.038 273.425,245.660 274.628,246.323 275.433 L 247.530 276.897 249.352 274.423 C 250.354 273.062,251.287 271.341,251.427 270.599 C 251.566 269.856,252.298 268.293,253.054 267.125 C 253.809 265.956,254.497 264.640,254.583 264.200 C 256.491 254.371,256.798 249.579,255.951 242.800 C 254.758 233.248,254.628 232.731,252.592 229.400 C 252.053 228.520,251.610 227.358,251.607 226.817 C 251.600 225.796,249.448 222.446,246.585 219.000 C 245.672 217.900,244.608 216.460,244.221 215.800 C 243.582 214.709,240.771 212.569,237.474 210.664 C 236.773 210.259,235.660 209.428,235.000 208.818 C 234.340 208.207,233.440 207.608,233.000 207.487 C 232.560 207.365,230.940 206.778,229.400 206.182 C 227.860 205.586,225.700 204.852,224.600 204.552 C 223.500 204.251,222.060 203.730,221.400 203.395 C 217.479 201.401,192.010 200.332,189.142 202.041 M397.905 204.283 C 398.402 204.379,399.122 204.375,399.505 204.275 C 399.887 204.175,399.480 204.096,398.600 204.101 C 397.720 204.105,397.407 204.187,397.905 204.283 M195.151 205.687 C 197.355 206.948,197.489 206.972,201.800 206.866 C 213.101 206.590,230.000 207.910,230.000 209.069 C 230.000 209.361,230.315 209.931,230.700 210.335 C 231.085 210.739,231.597 211.410,231.838 211.826 C 232.342 212.696,233.524 213.098,235.800 213.173 C 237.363 213.225,239.200 214.291,239.200 215.145 C 239.200 216.415,240.186 217.546,241.508 217.794 C 243.227 218.116,244.303 219.312,244.641 221.275 C 244.962 223.143,246.120 224.400,247.519 224.400 C 249.057 224.400,249.672 225.523,249.119 227.323 C 248.692 228.716,248.671 228.726,247.443 228.211 C 245.758 227.505,239.963 226.347,236.900 226.104 C 235.097 225.962,234.400 225.748,234.400 225.337 C 234.400 225.024,234.040 224.062,233.600 223.200 C 233.160 222.338,232.800 221.286,232.800 220.863 C 232.800 220.028,231.796 219.614,229.750 219.605 C 227.522 219.596,226.000 220.060,226.000 220.750 C 226.001 221.420,201.244 221.299,198.522 220.616 C 197.145 220.271,196.814 220.858,196.806 223.655 L 196.800 225.909 194.196 226.401 C 190.280 227.140,190.226 227.051,190.553 220.520 C 190.716 217.271,190.644 213.875,190.365 211.716 C 189.535 205.292,191.074 203.353,195.151 205.687 M196.880 213.680 C 196.272 214.288,196.264 216.454,196.863 218.454 C 197.386 220.198,197.436 220.220,199.039 219.421 C 202.192 217.848,204.822 217.514,215.692 217.306 C 226.997 217.089,227.566 216.984,227.006 215.220 C 226.667 214.152,226.305 214.090,217.629 213.609 C 207.346 213.038,197.488 213.072,196.880 213.680 M341.183 264.870 C 342.084 265.710,342.089 265.749,341.334 266.029 C 339.375 266.753,337.462 265.386,339.100 264.432 C 340.062 263.872,340.126 263.885,341.183 264.870 M397.905 287.883 C 398.402 287.979,399.122 287.975,399.505 287.875 C 399.887 287.775,399.480 287.696,398.600 287.701 C 397.720 287.705,397.407 287.787,397.905 287.883 M390.000 324.303 C 390.000 324.542,389.511 325.337,388.914 326.069 C 388.021 327.164,387.992 327.259,388.751 326.604 C 389.829 325.675,390.565 324.431,390.232 324.099 C 390.105 323.971,390.000 324.063,390.000 324.303 M79.060 466.896 C 80.343 468.928,81.537 469.969,82.600 469.985 C 83.228 469.994,83.123 469.828,82.113 469.212 C 81.404 468.780,80.414 467.795,79.913 467.022 C 79.411 466.250,78.777 465.530,78.504 465.423 C 78.231 465.316,78.481 465.979,79.060 466.896 M84.800 479.542 C 84.800 479.887,87.976 481.763,88.184 481.540 C 88.257 481.463,87.525 480.912,86.558 480.315 C 85.591 479.719,84.800 479.371,84.800 479.542 M229.078 638.204 C 228.672 639.057,227.857 639.872,227.004 640.278 C 225.315 641.084,225.131 641.722,226.751 641.157 C 228.136 640.674,229.397 639.396,229.963 637.900 C 230.567 636.307,229.869 636.548,229.078 638.204 M180.501 649.800 C 180.505 650.680,180.587 650.993,180.683 650.495 C 180.779 649.998,180.775 649.278,180.675 648.895 C 180.575 648.513,180.496 648.920,180.501 649.800 " stroke="none" fill="#3cb29d" fill-rule="evenodd"></path><path id="path1" d="M154.576 43.640 C 154.434 43.868,154.067 43.958,153.760 43.840 C 153.452 43.722,153.200 43.810,153.200 44.036 C 153.200 44.262,152.975 44.318,152.700 44.159 C 152.425 44.001,152.336 44.021,152.501 44.204 C 152.667 44.387,152.523 44.964,152.180 45.486 C 151.838 46.009,151.653 46.743,151.770 47.118 C 152.240 48.629,151.624 48.756,143.502 48.825 C 132.236 48.920,130.005 49.620,129.392 53.249 L 129.130 54.800 124.065 54.847 C 121.279 54.873,118.865 54.873,118.700 54.847 C 118.535 54.821,118.400 54.980,118.400 55.200 C 118.400 55.949,118.332 56.200,118.022 56.600 C 117.851 56.820,117.691 57.700,117.666 58.557 C 117.608 60.536,118.102 60.350,112.682 60.425 C 110.102 60.461,107.891 60.653,107.768 60.852 C 107.645 61.050,107.390 61.117,107.200 61.000 C 106.656 60.664,106.317 61.518,106.111 63.742 C 106.007 64.874,105.892 65.832,105.856 65.871 C 105.820 65.911,103.813 65.982,101.395 66.029 C 98.978 66.077,96.775 66.292,96.500 66.507 C 96.225 66.722,96.000 66.779,96.000 66.633 C 96.000 65.278,94.913 67.853,94.844 69.372 C 94.732 71.817,95.125 71.537,91.676 71.637 C 90.079 71.684,88.671 71.885,88.548 72.084 C 88.425 72.284,87.778 72.327,87.112 72.181 C 86.336 72.010,85.990 72.060,86.149 72.318 C 86.287 72.540,85.859 72.910,85.200 73.140 C 84.540 73.370,84.003 73.793,84.006 74.079 C 84.011 74.454,84.121 74.432,84.400 74.000 C 84.671 73.580,84.790 73.554,84.794 73.913 C 84.797 74.194,84.531 74.528,84.203 74.654 C 83.830 74.798,83.681 75.205,83.807 75.742 C 84.130 77.119,83.477 77.622,81.166 77.779 C 79.975 77.860,78.775 77.942,78.500 77.963 C 78.225 77.983,78.021 78.135,78.047 78.300 C 78.073 78.465,78.055 78.690,78.007 78.800 C 77.959 78.910,77.843 79.889,77.750 80.976 C 77.544 83.383,77.848 83.135,74.977 83.238 C 72.061 83.344,71.792 83.598,71.646 86.400 C 71.508 89.049,71.897 88.716,68.799 88.836 C 65.641 88.959,64.732 89.166,65.055 89.688 C 65.206 89.934,64.968 89.980,64.431 89.810 C 63.455 89.500,61.424 90.591,61.811 91.218 C 61.941 91.428,61.842 91.600,61.592 91.600 C 61.292 91.600,61.224 92.045,61.392 92.900 C 61.583 93.867,61.541 94.046,61.230 93.600 C 60.885 93.105,60.811 93.157,60.806 93.900 C 60.800 94.800,60.018 95.042,57.856 94.814 C 57.447 94.770,57.186 94.885,57.276 95.067 C 57.442 95.405,55.354 97.621,55.105 97.371 C 55.030 97.297,54.940 97.949,54.905 98.822 C 54.822 100.910,54.523 101.318,53.301 101.011 C 52.532 100.818,51.991 101.026,51.051 101.878 C 50.271 102.584,50.093 102.667,50.568 102.100 C 50.984 101.605,51.122 101.200,50.876 101.200 C 50.211 101.200,49.563 102.639,49.869 103.437 C 50.064 103.945,49.995 104.044,49.610 103.806 C 49.207 103.557,49.143 103.719,49.338 104.495 C 49.505 105.159,49.389 105.678,49.001 106.000 C 48.675 106.270,48.512 106.657,48.638 106.861 C 48.770 107.074,48.444 107.126,47.873 106.983 C 47.265 106.830,46.436 106.989,45.739 107.392 C 45.113 107.754,44.960 107.929,45.400 107.780 C 47.166 107.182,47.719 107.231,46.400 107.867 C 45.630 108.239,44.876 108.515,44.724 108.480 C 44.265 108.374,43.928 109.944,44.216 110.850 C 44.382 111.372,44.332 111.605,44.088 111.455 C 43.543 111.117,43.212 112.559,43.205 115.300 L 43.200 117.600 41.300 117.605 C 37.896 117.615,37.741 117.739,37.640 120.521 C 37.535 123.450,37.822 123.089,35.400 123.333 C 34.300 123.443,33.355 123.571,33.300 123.617 C 33.245 123.663,33.035 123.723,32.833 123.750 C 32.110 123.849,31.898 124.401,31.709 126.683 C 31.481 129.441,31.534 129.368,29.802 129.319 C 28.112 129.271,26.438 130.772,26.437 132.336 C 26.431 137.696,25.903 140.400,24.850 140.459 C 22.478 140.593,20.708 141.127,21.011 141.618 C 21.122 141.798,21.059 142.040,20.871 142.156 C 20.683 142.272,20.490 144.395,20.442 146.873 C 20.393 149.352,20.319 151.413,20.277 151.454 C 20.235 151.495,19.273 151.597,18.140 151.681 C 14.909 151.922,14.800 152.122,14.800 157.825 C 14.800 163.268,14.850 163.161,12.246 163.260 C 11.231 163.298,10.400 163.491,10.400 163.688 C 10.400 163.886,10.229 163.942,10.020 163.812 C 9.259 163.342,8.909 165.102,8.832 169.800 C 8.774 173.359,8.604 174.751,8.177 175.186 C 7.779 175.589,7.600 175.620,7.600 175.286 C 7.600 175.019,7.319 174.800,6.976 174.800 C 6.633 174.800,6.464 174.980,6.600 175.199 C 6.742 175.429,6.461 175.557,5.938 175.499 C 4.869 175.383,2.969 178.348,3.897 178.685 C 4.292 178.828,4.292 179.042,3.899 179.732 C 3.268 180.839,3.300 180.491,3.246 186.700 L 3.200 192.000 1.600 192.000 L 0.000 192.000 0.000 248.000 L 0.000 304.000 1.700 304.060 L 3.400 304.120 1.600 304.400 L -0.200 304.680 1.500 304.740 L 3.200 304.800 3.261 309.900 C 3.318 314.668,3.354 315.320,3.604 316.100 C 3.657 316.265,3.725 316.535,3.756 316.700 C 3.787 316.865,3.923 317.180,4.059 317.400 C 4.195 317.620,4.432 318.388,4.586 319.107 C 4.874 320.447,6.410 321.606,7.880 321.594 C 8.498 321.589,8.515 321.528,8.000 321.163 C 7.531 320.832,7.523 320.772,7.965 320.891 C 8.657 321.077,8.720 321.485,8.876 326.716 C 8.944 329.004,9.142 330.964,9.316 331.072 C 9.490 331.179,9.533 331.582,9.411 331.967 C 9.189 332.664,10.361 334.095,11.050 333.969 C 11.242 333.934,12.154 333.927,13.076 333.953 L 14.753 334.000 14.936 338.900 C 15.143 344.419,15.198 344.848,15.667 344.559 C 15.850 344.445,16.000 344.538,16.000 344.764 C 16.000 344.990,16.252 345.078,16.560 344.960 C 16.867 344.842,17.238 344.938,17.384 345.174 C 17.530 345.410,18.043 345.510,18.525 345.397 C 20.065 345.036,20.323 345.617,20.479 349.802 C 20.561 352.001,20.768 354.025,20.938 354.300 C 21.108 354.575,21.119 355.008,20.962 355.262 C 20.779 355.557,20.853 355.615,21.165 355.422 C 21.494 355.218,21.612 355.361,21.527 355.860 C 21.449 356.315,21.609 356.556,21.942 356.486 C 22.240 356.423,22.718 356.566,23.004 356.803 C 23.290 357.040,23.989 357.118,24.558 356.975 C 25.847 356.651,25.910 356.823,26.175 361.400 C 26.482 366.705,26.514 366.846,27.583 367.551 C 28.245 367.988,28.459 368.026,28.239 367.667 C 27.998 367.274,28.235 367.301,29.136 367.767 C 29.809 368.115,30.639 368.400,30.980 368.400 C 31.471 368.400,31.606 368.922,31.631 370.900 C 31.658 373.117,31.771 374.619,32.080 376.871 C 32.130 377.239,32.343 377.435,32.554 377.305 C 32.765 377.174,32.830 377.344,32.699 377.686 C 32.394 378.481,33.119 379.206,33.914 378.901 C 34.335 378.739,34.434 378.822,34.225 379.159 C 34.036 379.466,34.125 379.623,34.460 379.573 C 37.260 379.158,38.149 381.003,37.617 386.124 C 37.575 386.522,37.750 387.099,38.005 387.406 C 38.260 387.714,38.347 388.161,38.199 388.402 C 37.815 389.023,39.770 390.863,40.511 390.579 C 40.845 390.450,41.238 390.538,41.383 390.773 C 41.528 391.008,41.997 391.200,42.424 391.200 C 43.112 391.200,43.204 391.505,43.232 393.900 C 43.284 398.202,43.595 400.019,44.400 400.730 C 44.840 401.118,44.850 401.181,44.438 400.968 C 44.069 400.776,43.974 400.835,44.162 401.138 C 44.319 401.392,44.717 401.600,45.047 401.600 C 45.403 401.600,45.530 401.790,45.358 402.068 C 45.166 402.378,45.283 402.454,45.705 402.292 C 48.172 401.345,49.245 403.676,48.821 409.062 C 48.783 409.536,48.951 410.046,49.193 410.195 C 49.435 410.345,49.516 410.835,49.373 411.284 C 49.183 411.884,49.250 412.016,49.625 411.784 C 49.986 411.561,50.063 411.660,49.885 412.122 C 49.644 412.751,50.169 413.354,51.000 413.402 C 51.220 413.415,52.165 413.570,53.100 413.748 L 54.800 414.070 54.806 417.735 C 54.811 420.402,54.926 421.237,55.230 420.800 C 55.547 420.346,55.594 420.492,55.425 421.400 C 55.302 422.060,55.393 422.870,55.627 423.200 C 55.961 423.671,55.997 423.604,55.795 422.887 C 55.539 421.977,55.541 421.977,56.535 422.971 C 57.083 423.519,58.014 424.089,58.604 424.237 C 59.392 424.435,59.534 424.596,59.138 424.847 C 58.749 425.094,58.849 425.189,59.500 425.194 C 60.346 425.200,60.400 425.366,60.400 427.976 C 60.400 429.503,60.556 430.849,60.746 430.967 C 60.937 431.085,61.013 431.680,60.915 432.290 C 60.771 433.193,60.824 433.288,61.201 432.800 C 61.579 432.311,61.625 432.386,61.448 433.207 C 61.277 434.002,61.476 434.379,62.394 434.996 C 63.033 435.426,63.477 435.856,63.381 435.953 C 63.284 436.049,62.844 435.802,62.402 435.402 C 61.961 435.003,61.600 434.878,61.600 435.124 C 61.600 435.817,63.135 436.474,64.065 436.179 C 64.678 435.985,64.817 436.049,64.588 436.420 C 64.360 436.788,64.509 436.865,65.137 436.700 C 65.951 436.488,66.003 436.620,66.050 439.037 C 66.078 440.447,66.145 441.780,66.200 442.000 C 66.255 442.220,66.322 442.771,66.350 443.224 C 66.378 443.684,66.584 443.934,66.816 443.790 C 67.081 443.627,67.147 443.873,66.998 444.466 C 66.856 445.032,67.016 445.715,67.404 446.200 C 68.025 446.976,68.030 446.971,67.590 446.066 C 67.340 445.552,67.216 445.050,67.315 444.951 C 67.414 444.852,67.803 445.419,68.178 446.211 C 68.802 447.526,68.971 447.629,70.131 447.401 C 71.079 447.215,71.248 447.257,70.800 447.570 C 70.274 447.936,70.279 447.989,70.841 447.994 C 71.362 447.999,71.524 448.659,71.711 451.542 C 72.060 456.932,73.176 458.859,76.286 459.443 C 77.535 459.677,77.603 459.781,77.661 461.545 C 77.694 462.565,77.742 463.605,77.767 463.855 C 77.861 464.819,81.646 469.279,82.672 469.636 C 82.971 469.740,83.184 471.009,83.254 473.088 C 83.359 476.264,83.729 477.111,84.900 476.864 C 85.065 476.829,85.200 476.966,85.200 477.169 C 85.200 477.372,85.666 478.092,86.236 478.769 C 86.805 479.446,87.072 480.000,86.830 480.000 C 86.587 480.000,86.032 479.415,85.596 478.700 C 84.880 477.527,84.803 477.490,84.801 478.317 C 84.800 478.985,85.342 479.570,86.800 480.476 L 88.800 481.720 88.800 484.660 C 88.800 486.394,88.968 487.600,89.209 487.600 C 89.433 487.600,89.832 488.095,90.095 488.700 C 90.933 490.629,92.412 492.326,93.624 492.748 C 94.727 493.133,95.338 496.447,94.837 499.330 C 94.806 499.511,94.965 499.545,95.190 499.406 C 95.416 499.267,95.600 499.299,95.600 499.479 C 95.600 499.658,96.633 499.861,97.895 499.930 C 100.697 500.084,100.349 499.392,100.426 504.959 C 100.502 510.437,100.763 510.944,103.608 511.140 C 106.006 511.305,105.937 511.154,106.041 516.492 C 106.147 521.958,106.504 522.588,109.600 522.768 C 110.590 522.825,111.430 522.901,111.466 522.936 C 111.503 522.971,111.588 525.115,111.657 527.700 C 111.725 530.285,111.920 532.400,112.090 532.400 C 112.261 532.400,112.400 532.664,112.400 532.987 C 112.400 533.345,112.635 533.485,113.000 533.345 C 113.330 533.218,113.601 533.269,113.602 533.457 C 113.603 533.646,114.447 533.849,115.478 533.909 C 117.799 534.045,117.529 533.418,117.639 538.923 C 117.691 541.515,117.886 543.730,118.073 543.845 C 118.260 543.961,118.321 544.204,118.209 544.386 C 117.916 544.860,119.122 545.301,121.176 545.472 C 123.360 545.653,123.090 545.038,123.257 550.200 C 123.427 555.440,123.978 556.442,126.779 556.605 C 128.892 556.729,128.707 556.280,128.835 561.600 C 128.896 564.130,129.046 566.380,129.167 566.600 C 129.288 566.820,129.391 567.180,129.394 567.400 C 129.397 567.620,129.625 567.823,129.900 567.850 C 130.175 567.877,130.445 567.942,130.500 567.992 C 130.555 568.043,131.481 568.152,132.558 568.234 C 134.997 568.420,134.729 567.813,134.848 573.406 C 134.967 578.976,135.158 579.326,138.204 579.541 C 139.302 579.618,140.233 579.711,140.273 579.747 C 140.313 579.783,140.388 581.789,140.440 584.206 C 140.511 587.517,140.690 588.789,141.167 589.369 C 141.693 590.008,141.699 590.079,141.200 589.792 C 140.684 589.495,140.676 589.540,141.145 590.119 C 141.445 590.489,141.838 590.700,142.018 590.589 C 142.198 590.478,142.447 590.552,142.572 590.754 C 142.696 590.956,143.423 591.103,144.187 591.082 C 146.008 591.030,145.915 590.812,146.040 595.400 C 146.101 597.600,146.312 599.617,146.510 599.882 C 146.707 600.148,146.792 600.508,146.698 600.682 C 146.604 600.857,146.858 601.315,147.263 601.700 C 147.669 602.085,148.000 602.288,148.000 602.151 C 148.000 602.014,148.253 602.112,148.562 602.368 C 148.871 602.625,149.571 602.722,150.118 602.585 C 151.468 602.246,151.542 602.462,151.669 607.128 C 151.730 609.368,151.896 611.200,152.038 611.200 C 152.180 611.200,152.274 611.605,152.248 612.100 C 152.220 612.625,152.408 612.958,152.700 612.900 C 152.975 612.845,153.200 612.970,153.200 613.177 C 153.200 613.384,153.560 613.485,154.000 613.400 C 154.440 613.315,154.800 613.377,154.800 613.537 C 154.800 613.698,155.430 613.808,156.200 613.782 L 157.600 613.736 157.631 616.368 C 157.647 617.816,157.748 619.360,157.854 619.800 C 157.960 620.240,158.066 621.104,158.090 621.721 C 158.117 622.418,158.552 623.194,159.244 623.776 C 159.856 624.290,160.257 624.810,160.137 624.930 C 160.016 625.050,160.485 625.133,161.178 625.113 C 162.887 625.064,163.139 625.429,163.245 628.100 C 163.296 629.365,163.496 630.400,163.691 630.400 C 163.885 630.400,164.408 631.274,164.852 632.343 C 165.444 633.769,166.069 634.516,167.200 635.152 C 168.729 636.011,169.612 637.810,168.995 638.808 C 168.850 639.043,168.942 639.489,169.200 639.800 C 169.458 640.111,169.536 640.581,169.373 640.844 C 169.172 641.169,169.247 641.218,169.606 640.996 C 169.987 640.761,170.067 640.850,169.888 641.314 C 169.706 641.789,169.811 641.894,170.286 641.712 C 170.713 641.548,170.834 641.621,170.645 641.927 C 170.458 642.230,170.574 642.308,170.979 642.153 C 171.321 642.022,171.600 642.122,171.600 642.375 C 171.600 642.685,172.057 642.750,172.996 642.574 C 174.594 642.274,174.646 642.353,174.946 645.541 C 175.211 648.347,175.125 648.289,179.100 648.367 C 180.770 648.399,180.800 648.425,180.800 649.800 L 180.800 651.200 197.600 651.200 L 214.400 651.200 214.400 649.800 L 214.400 648.400 217.100 648.353 C 218.585 648.327,219.935 648.327,220.100 648.353 C 220.265 648.379,220.400 648.209,220.400 647.976 C 220.400 647.743,220.588 647.669,220.818 647.811 C 221.047 647.953,221.497 647.851,221.818 647.585 C 222.228 647.245,222.400 647.235,222.400 647.551 C 222.400 647.798,222.591 648.000,222.824 648.000 C 223.057 648.000,223.117 647.789,222.958 647.532 C 222.765 647.220,222.884 647.147,223.314 647.312 C 223.746 647.477,223.892 647.385,223.757 647.032 C 223.644 646.737,223.895 646.416,224.327 646.303 C 224.954 646.139,225.082 645.790,225.007 644.451 C 224.955 643.543,225.068 642.800,225.257 642.800 C 225.446 642.800,225.600 642.383,225.600 641.874 C 225.600 641.209,225.996 640.759,227.004 640.278 C 227.827 639.886,228.671 639.060,229.041 638.284 C 229.388 637.555,230.061 636.788,230.536 636.579 C 231.481 636.164,231.478 636.177,231.550 633.000 C 231.595 631.002,231.683 630.799,232.500 630.794 C 233.243 630.789,233.295 630.715,232.800 630.370 C 232.348 630.055,232.499 630.010,233.411 630.188 C 235.170 630.531,236.539 629.193,236.199 627.462 C 236.007 626.484,236.051 626.335,236.394 626.800 C 236.767 627.307,236.826 627.276,236.772 626.600 C 236.737 626.160,236.751 625.665,236.804 625.500 C 237.056 624.713,237.103 624.233,237.150 622.000 C 237.189 620.114,237.334 619.600,237.824 619.600 C 238.167 619.600,238.332 619.413,238.190 619.184 C 238.026 618.918,238.279 618.855,238.892 619.009 C 239.553 619.174,240.153 618.983,240.825 618.393 L 241.800 617.536 240.811 618.168 C 239.179 619.211,238.965 618.881,240.508 617.700 C 241.655 616.821,241.903 616.399,241.740 615.600 C 241.579 614.813,241.626 614.728,241.962 615.200 C 242.308 615.687,242.398 615.593,242.444 614.700 C 242.475 614.095,242.545 613.420,242.600 613.200 C 242.655 612.980,242.722 611.720,242.750 610.400 C 242.796 608.195,242.873 608.000,243.700 607.994 C 244.351 607.989,244.451 607.894,244.062 607.647 C 243.666 607.396,243.808 607.235,244.596 607.037 C 245.186 606.889,246.117 606.319,246.665 605.771 C 247.659 604.777,247.661 604.777,247.405 605.687 C 247.203 606.404,247.239 606.471,247.573 606.000 C 247.807 605.670,247.898 604.860,247.775 604.200 C 247.606 603.292,247.653 603.146,247.970 603.600 C 248.274 604.037,248.389 603.202,248.394 600.535 L 248.400 596.870 250.100 596.548 C 251.035 596.370,251.980 596.215,252.200 596.202 C 253.031 596.154,253.556 595.551,253.315 594.922 C 253.137 594.460,253.214 594.361,253.575 594.584 C 253.950 594.816,254.017 594.684,253.827 594.084 C 253.684 593.635,253.765 593.145,254.007 592.995 C 254.249 592.846,254.417 592.336,254.379 591.862 C 253.955 586.476,255.028 584.145,257.495 585.092 C 257.917 585.254,258.034 585.178,257.842 584.868 C 257.670 584.590,257.797 584.400,258.153 584.400 C 258.483 584.400,258.881 584.192,259.038 583.938 C 259.226 583.635,259.131 583.576,258.762 583.768 C 258.350 583.981,258.360 583.918,258.800 583.530 C 259.557 582.861,259.676 582.231,259.883 577.798 C 260.058 574.032,260.851 572.784,262.634 573.469 C 262.951 573.590,263.449 573.491,263.742 573.248 C 264.034 573.006,264.421 572.940,264.601 573.103 C 264.781 573.267,264.806 573.187,264.658 572.928 C 264.509 572.668,264.584 572.333,264.826 572.184 C 265.067 572.035,265.160 571.493,265.031 570.981 C 264.902 570.468,264.956 569.951,265.150 569.831 C 265.344 569.711,265.530 568.132,265.563 566.323 C 265.625 562.889,265.944 562.231,267.379 562.578 C 267.808 562.682,268.397 562.568,268.689 562.326 C 268.981 562.084,269.320 561.987,269.443 562.110 C 269.803 562.470,271.079 561.049,270.888 560.500 C 270.793 560.225,270.914 560.000,271.159 560.000 C 271.403 560.000,271.569 559.505,271.528 558.900 C 271.487 558.295,271.487 556.202,271.527 554.250 L 271.600 550.700 272.865 550.953 C 273.736 551.127,274.344 551.013,274.815 550.586 C 275.192 550.245,275.747 550.019,276.050 550.083 C 276.352 550.147,276.549 549.956,276.486 549.658 C 276.423 549.360,276.526 548.910,276.715 548.658 C 276.904 548.406,277.102 546.403,277.155 544.207 C 277.266 539.652,277.181 539.863,278.900 539.879 C 279.615 539.885,280.425 539.713,280.700 539.496 C 280.975 539.280,281.200 539.236,281.200 539.400 C 281.200 539.564,281.478 539.467,281.818 539.185 C 282.158 538.903,282.346 538.436,282.236 538.149 C 282.125 537.861,282.168 537.543,282.331 537.442 C 282.494 537.342,282.679 535.314,282.741 532.936 C 282.872 527.967,282.733 528.302,284.690 528.232 C 285.521 528.203,286.425 528.038,286.700 527.866 C 286.975 527.694,287.200 527.666,287.200 527.805 C 287.200 527.944,287.470 527.787,287.800 527.457 C 288.270 526.987,288.400 525.765,288.400 521.829 L 288.400 516.800 290.500 516.739 C 293.742 516.645,293.808 516.627,293.682 515.891 C 293.618 515.511,293.716 515.200,293.901 515.200 C 294.086 515.200,294.286 513.087,294.346 510.506 C 294.473 505.052,294.246 505.580,296.535 505.427 C 297.944 505.333,300.600 504.000,299.380 504.000 C 299.227 504.000,299.271 503.775,299.476 503.500 C 299.682 503.225,299.902 501.020,299.964 498.600 C 300.098 493.421,299.780 494.063,302.300 493.879 C 305.348 493.657,305.405 493.552,305.545 487.925 C 305.688 482.170,305.406 482.844,307.722 482.709 C 308.753 482.649,309.597 482.457,309.598 482.282 C 309.599 482.108,309.915 482.018,310.300 482.082 C 310.777 482.163,310.963 481.977,310.882 481.500 C 310.818 481.115,310.920 480.800,311.110 480.800 C 311.299 480.800,311.500 478.687,311.556 476.105 C 311.675 470.604,311.376 471.274,313.789 471.093 C 314.869 471.011,315.823 470.732,315.909 470.472 C 315.996 470.213,316.287 470.000,316.556 470.000 C 316.825 470.000,317.054 469.595,317.066 469.100 C 317.182 464.096,317.089 464.406,318.686 463.738 C 320.349 463.044,321.072 462.276,321.452 460.800 C 321.594 460.250,321.908 459.551,322.149 459.246 C 322.646 458.618,322.656 458.561,322.739 455.731 C 322.797 453.758,322.862 453.641,324.141 453.219 C 326.926 452.300,328.400 449.455,328.400 444.996 L 328.400 442.089 329.704 441.844 C 331.416 441.523,333.059 439.960,333.412 438.317 C 333.567 437.593,333.800 436.822,333.929 436.605 C 334.059 436.388,334.228 434.858,334.305 433.205 C 334.411 430.928,334.607 430.103,335.113 429.800 C 335.480 429.580,336.370 428.833,337.090 428.140 C 337.811 427.447,338.407 427.087,338.416 427.340 C 338.437 427.977,339.660 425.185,339.791 424.200 C 339.850 423.760,339.921 422.441,339.949 421.268 L 340.000 419.136 341.300 419.392 C 342.267 419.583,342.446 419.541,342.000 419.230 C 341.484 418.870,341.498 418.811,342.104 418.806 C 343.508 418.794,345.302 416.577,345.005 415.222 C 344.835 414.448,344.895 414.000,345.168 414.000 C 345.406 414.000,345.579 413.865,345.553 413.700 C 345.527 413.535,345.527 412.100,345.553 410.510 L 345.600 407.620 346.900 407.844 C 347.776 407.994,348.026 407.944,347.666 407.689 C 347.250 407.394,347.316 407.263,347.967 407.093 C 348.426 406.973,348.702 407.036,348.580 407.233 C 348.458 407.430,348.632 407.486,348.967 407.357 C 349.301 407.229,349.552 407.006,349.525 406.862 C 349.392 406.165,350.713 403.924,350.950 404.443 C 351.090 404.749,351.110 404.505,350.995 403.900 C 350.879 403.295,350.948 402.800,351.148 402.800 C 351.348 402.800,351.503 402.575,351.493 402.300 C 351.482 402.025,351.502 400.590,351.537 399.110 L 351.600 396.420 352.900 396.644 C 353.943 396.823,354.082 396.775,353.600 396.399 C 353.104 396.012,353.161 395.966,353.930 396.136 C 354.866 396.342,356.400 395.251,356.400 394.378 C 356.400 394.145,355.945 394.460,355.389 395.078 L 354.379 396.200 355.289 394.748 C 355.790 393.950,356.354 393.387,356.543 393.498 C 356.731 393.609,356.762 393.138,356.611 392.450 C 356.436 391.652,356.493 391.200,356.768 391.200 C 357.041 391.200,357.200 390.022,357.200 387.992 L 357.200 384.785 358.300 385.025 C 358.945 385.165,359.205 385.125,358.928 384.926 C 358.613 384.700,359.047 384.342,360.225 383.855 C 361.817 383.196,361.973 383.015,361.766 382.061 C 361.579 381.202,361.623 381.114,361.999 381.600 C 362.376 382.088,362.430 381.995,362.287 381.100 C 362.190 380.495,362.228 380.000,362.371 380.000 C 362.514 380.000,362.683 378.606,362.746 376.903 C 362.882 373.240,362.610 373.657,364.993 373.458 C 366.271 373.352,367.123 373.047,367.470 372.572 C 368.338 371.384,368.070 371.003,367.171 372.146 C 366.715 372.726,366.183 373.200,365.989 373.200 C 365.795 373.200,366.078 372.758,366.618 372.218 C 367.158 371.678,367.600 371.038,367.600 370.795 C 367.600 370.552,367.743 370.441,367.917 370.549 C 368.091 370.656,368.276 369.092,368.327 367.072 C 368.428 363.095,368.655 361.863,369.221 362.213 C 369.420 362.336,369.933 362.250,370.359 362.022 C 370.927 361.718,371.189 361.740,371.336 362.103 C 371.489 362.481,371.544 362.475,371.568 362.076 C 371.586 361.788,371.760 361.651,371.955 361.772 C 372.150 361.893,372.285 361.678,372.255 361.296 C 372.220 360.858,372.485 360.599,372.967 360.598 C 373.389 360.597,373.809 360.372,373.901 360.098 C 373.992 359.824,373.861 359.600,373.610 359.600 C 373.358 359.600,373.281 359.392,373.438 359.138 C 373.808 358.540,374.020 357.223,374.278 353.932 C 374.501 351.086,374.822 350.754,377.499 350.611 C 377.993 350.585,378.623 350.320,378.899 350.023 C 379.287 349.604,379.289 349.545,378.905 349.762 C 378.573 349.949,378.487 349.838,378.646 349.423 C 378.777 349.083,379.064 348.916,379.285 349.052 C 379.531 349.204,379.586 348.984,379.427 348.484 C 379.284 348.035,379.365 347.545,379.607 347.395 C 379.849 347.246,380.017 346.736,379.979 346.262 C 379.942 345.788,379.931 343.991,379.956 342.268 L 380.000 339.136 381.300 339.392 C 382.267 339.583,382.446 339.541,382.000 339.230 C 381.475 338.864,381.481 338.811,382.046 338.806 C 382.401 338.803,383.211 338.422,383.846 337.961 L 385.000 337.122 383.878 338.161 C 382.716 339.237,382.908 339.594,384.158 338.680 C 384.928 338.117,385.023 337.555,385.439 331.147 L 385.715 326.893 387.057 326.253 C 388.670 325.484,388.855 325.727,387.300 326.571 C 386.300 327.114,386.278 327.169,387.064 327.184 C 388.121 327.204,389.956 325.120,390.271 323.544 C 390.397 322.915,390.658 322.400,390.850 322.400 C 391.043 322.400,391.179 322.265,391.153 322.100 C 391.127 321.935,391.140 321.710,391.183 321.600 C 391.338 321.201,391.510 318.112,391.602 314.088 C 391.688 310.347,391.773 309.937,392.548 309.538 C 393.017 309.297,393.805 308.731,394.300 308.280 C 394.795 307.829,395.200 307.644,395.200 307.868 C 395.200 308.428,393.990 309.476,392.792 309.954 C 392.050 310.249,391.983 310.356,392.526 310.375 C 394.338 310.438,396.650 307.233,396.476 304.900 C 396.439 304.405,396.567 304.000,396.760 304.000 C 396.953 304.000,397.103 303.775,397.093 303.500 C 397.082 303.225,397.102 299.535,397.137 295.300 L 397.200 287.600 398.600 287.600 L 400.000 287.600 400.000 246.200 L 400.000 204.800 398.600 204.800 L 397.200 204.800 397.132 196.900 C 397.068 189.524,397.029 188.442,396.795 187.400 C 396.746 187.180,396.726 186.868,396.750 186.707 C 397.029 184.897,394.126 181.200,392.426 181.200 C 391.651 181.200,391.597 180.961,391.557 177.300 C 391.515 173.469,391.375 170.795,391.196 170.400 C 391.146 170.290,391.127 170.065,391.153 169.900 C 391.179 169.735,391.009 169.600,390.776 169.600 C 390.543 169.600,390.464 169.420,390.600 169.200 C 390.736 168.980,390.600 168.800,390.297 168.800 C 389.995 168.800,389.355 168.102,388.876 167.249 C 388.384 166.374,387.481 165.482,386.802 165.201 C 385.634 164.717,385.598 164.621,385.539 161.851 C 385.506 160.283,385.445 158.820,385.404 158.600 C 384.719 154.896,383.802 153.593,381.303 152.768 C 380.020 152.345,379.730 151.220,380.018 147.786 C 380.028 147.668,379.668 147.104,379.218 146.532 C 378.768 145.960,378.400 145.190,378.400 144.821 C 378.400 143.966,377.116 142.584,375.588 141.794 C 374.471 141.216,373.995 139.528,374.367 137.458 C 374.400 137.270,374.220 136.865,373.965 136.558 C 373.710 136.251,373.621 136.000,373.767 136.000 C 373.912 136.000,373.799 135.747,373.516 135.438 C 373.232 135.129,372.910 134.881,372.800 134.886 C 372.690 134.891,372.420 134.853,372.200 134.801 C 371.980 134.750,371.620 134.666,371.400 134.615 C 371.180 134.564,370.415 134.494,369.700 134.461 L 368.400 134.400 368.400 132.080 C 368.400 129.778,367.949 128.800,366.888 128.800 C 365.322 128.800,362.777 125.295,362.617 122.918 C 362.531 121.643,362.421 120.510,362.371 120.400 C 362.322 120.290,362.263 119.841,362.241 119.402 C 362.191 118.430,359.919 117.535,358.300 117.850 C 357.362 118.032,357.193 117.927,357.155 117.132 C 357.088 115.734,356.936 114.250,356.814 113.800 C 356.754 113.580,356.709 113.310,356.714 113.200 C 356.726 112.943,355.455 111.767,355.310 111.900 C 355.249 111.955,355.155 111.983,355.100 111.963 C 355.045 111.942,354.322 111.879,353.493 111.823 C 351.607 111.694,351.666 111.767,351.544 109.411 C 351.410 106.821,350.700 106.152,347.989 106.056 C 345.413 105.965,345.627 106.155,345.541 103.882 C 345.452 101.510,344.475 100.559,342.012 100.442 C 339.845 100.339,340.063 100.579,339.961 98.190 C 339.828 95.093,339.553 94.800,336.786 94.800 C 334.219 94.800,334.129 94.700,334.353 92.100 C 334.395 91.605,334.249 91.200,334.028 91.200 C 333.806 91.200,333.718 90.959,333.831 90.664 C 334.042 90.113,333.152 89.124,332.542 89.233 C 332.354 89.267,332.110 89.255,332.000 89.207 C 331.890 89.158,331.104 89.056,330.253 88.979 C 328.424 88.814,328.501 88.871,328.252 87.498 C 328.144 86.901,327.942 86.230,327.804 86.007 C 327.666 85.783,327.788 85.586,328.076 85.568 C 328.364 85.551,328.105 85.356,327.500 85.135 C 326.895 84.914,326.386 84.433,326.368 84.067 C 326.351 83.700,326.252 83.606,326.149 83.858 C 325.949 84.345,324.400 84.117,324.400 83.601 C 324.400 83.432,322.835 83.268,320.921 83.235 C 316.797 83.165,317.269 83.486,317.155 80.668 C 317.047 78.010,316.797 77.783,313.801 77.630 C 311.571 77.516,311.300 77.284,311.401 75.582 C 311.440 74.932,311.336 74.400,311.171 74.400 C 311.006 74.400,310.922 74.085,310.984 73.700 C 311.143 72.720,310.490 72.029,309.574 72.205 C 309.148 72.287,308.800 72.226,308.800 72.070 C 308.800 71.914,306.866 71.730,304.502 71.662 C 302.139 71.594,300.178 71.507,300.144 71.469 C 300.091 71.408,299.807 69.796,299.429 67.400 C 299.360 66.960,299.100 66.645,298.852 66.700 C 298.603 66.755,298.400 66.655,298.400 66.478 C 298.400 66.300,297.995 66.146,297.500 66.134 C 293.839 66.049,293.655 66.003,293.386 65.100 C 292.915 63.515,291.424 61.606,290.656 61.603 C 289.995 61.600,290.018 61.693,290.856 62.424 L 291.800 63.247 290.600 62.527 C 289.940 62.131,289.080 61.517,288.690 61.164 C 288.125 60.653,286.898 60.504,282.697 60.435 C 276.556 60.333,277.206 60.595,277.019 58.151 C 276.938 57.078,276.832 56.155,276.785 56.100 C 276.738 56.045,276.678 55.775,276.650 55.500 C 276.613 55.133,275.113 54.966,271.007 54.874 C 265.008 54.738,264.633 54.602,265.032 52.700 C 265.182 51.988,265.096 51.600,264.789 51.600 C 264.528 51.600,264.410 51.352,264.526 51.049 C 264.751 50.463,264.106 49.600,263.444 49.600 C 263.225 49.600,263.396 49.873,263.824 50.207 C 264.545 50.770,264.523 50.780,263.513 50.348 C 262.914 50.092,262.516 49.736,262.627 49.556 C 262.738 49.377,262.327 49.217,261.714 49.200 C 261.101 49.184,256.730 49.078,252.000 48.964 C 242.541 48.737,242.113 48.616,242.620 46.308 C 242.775 45.604,242.698 45.200,242.408 45.200 C 242.158 45.200,242.051 45.040,242.172 44.845 C 242.499 44.316,241.393 43.551,240.691 43.820 C 240.356 43.949,239.964 43.866,239.822 43.635 C 239.461 43.051,154.937 43.055,154.576 43.640 M131.466 51.307 C 130.770 52.026,130.123 52.564,130.029 52.503 C 129.801 52.354,132.069 50.000,132.441 50.000 C 132.601 50.000,132.162 50.588,131.466 51.307 M63.376 90.587 C 62.949 90.910,62.420 91.175,62.200 91.175 C 61.980 91.175,62.149 90.910,62.576 90.587 C 63.004 90.264,63.533 90.000,63.753 90.000 C 63.973 90.000,63.804 90.264,63.376 90.587 M213.800 99.574 C 217.100 100.011,220.700 100.545,221.800 100.761 C 222.900 100.976,225.824 101.448,228.297 101.810 C 234.279 102.684,242.585 104.811,246.893 106.572 C 248.814 107.357,250.742 108.000,251.179 108.000 C 252.603 108.000,258.366 110.186,260.800 111.650 C 261.956 112.345,266.218 114.282,268.142 114.987 C 269.210 115.378,270.674 116.216,271.395 116.849 C 272.116 117.482,272.873 118.000,273.078 118.000 C 274.050 118.000,280.687 121.773,281.885 123.007 C 282.630 123.773,283.575 124.400,283.986 124.400 C 284.397 124.400,284.793 124.542,284.867 124.715 C 284.940 124.888,285.885 125.543,286.966 126.170 C 288.048 126.798,289.720 128.099,290.682 129.061 C 291.644 130.023,292.954 131.033,293.593 131.305 C 294.791 131.816,298.040 134.641,303.821 140.200 C 311.462 147.548,314.237 150.461,314.960 151.893 C 315.319 152.604,316.158 153.589,316.824 154.081 C 317.491 154.574,318.877 156.242,319.905 157.788 C 320.933 159.335,322.258 161.140,322.850 161.800 C 323.442 162.460,324.923 164.710,326.141 166.800 C 327.359 168.890,328.697 170.960,329.114 171.400 C 330.391 172.747,331.600 174.688,331.600 175.390 C 331.600 175.756,332.114 176.808,332.743 177.728 C 334.631 180.489,336.611 184.430,337.603 187.400 C 338.504 190.099,339.811 193.108,340.991 195.200 C 341.658 196.382,344.294 204.788,344.630 206.800 C 344.758 207.570,345.384 209.374,346.021 210.809 C 346.764 212.483,347.392 214.919,347.774 217.609 C 348.102 219.914,348.650 223.780,348.993 226.201 C 351.029 240.580,351.231 265.037,349.339 268.098 C 349.212 268.304,348.969 272.061,348.798 276.447 C 348.480 284.646,347.855 287.187,346.154 287.197 C 345.909 287.199,345.099 287.753,344.354 288.430 C 341.486 291.034,340.996 291.197,336.000 291.199 C 333.470 291.200,329.420 291.389,327.000 291.619 C 323.908 291.913,321.093 291.910,317.530 291.608 C 314.742 291.372,309.642 291.103,306.196 291.011 C 300.284 290.853,299.791 290.778,297.428 289.672 C 294.831 288.456,292.269 287.993,283.400 287.133 C 275.463 286.364,275.365 286.375,273.766 288.211 C 271.263 291.088,268.935 294.181,268.363 295.388 C 268.053 296.042,267.357 296.797,266.815 297.067 C 266.274 297.337,264.917 298.693,263.801 300.079 C 262.685 301.466,261.088 302.960,260.252 303.400 C 259.417 303.840,257.869 305.029,256.812 306.043 C 254.620 308.147,250.457 310.800,249.348 310.800 C 248.936 310.800,248.115 311.408,247.521 312.152 C 246.582 313.329,245.688 313.748,240.594 315.395 C 237.378 316.435,233.988 317.710,233.061 318.228 C 228.444 320.809,227.337 320.898,196.600 321.166 C 164.753 321.444,162.322 321.338,160.720 319.602 C 158.830 317.554,158.650 316.035,158.829 303.600 C 159.023 290.095,159.024 289.118,158.872 260.000 C 158.798 245.894,158.912 236.122,159.174 234.000 C 159.405 232.130,159.595 225.491,159.597 219.247 C 159.600 206.792,159.509 206.281,156.990 204.630 C 156.442 204.271,155.636 203.216,155.199 202.287 C 154.762 201.357,153.054 198.797,151.404 196.598 C 149.755 194.399,148.404 192.310,148.403 191.956 C 148.400 191.239,146.646 188.447,145.762 187.753 C 145.092 187.227,141.600 180.559,141.600 179.805 C 141.600 179.520,140.880 178.416,140.000 177.351 C 139.120 176.286,138.400 175.190,138.400 174.915 C 138.400 174.189,134.806 166.045,133.760 164.400 C 133.270 163.630,132.588 162.100,132.244 161.000 C 131.900 159.900,131.147 157.470,130.572 155.600 C 129.996 153.730,129.272 151.801,128.962 151.314 C 128.653 150.827,128.399 150.197,128.398 149.914 C 128.396 149.631,128.125 148.882,127.795 148.249 C 126.920 146.572,125.222 140.813,124.765 137.974 C 124.547 136.624,123.746 134.282,122.985 132.770 C 121.696 130.211,121.600 129.757,121.600 126.230 L 121.600 122.441 123.100 121.323 C 123.925 120.708,124.690 120.088,124.800 119.945 C 124.910 119.803,126.097 119.130,127.437 118.449 C 128.777 117.769,130.557 116.670,131.392 116.006 C 132.227 115.343,133.242 114.800,133.649 114.800 C 134.360 114.800,135.190 114.422,142.200 110.905 C 143.960 110.022,146.390 109.017,147.600 108.672 C 148.810 108.327,150.880 107.739,152.200 107.366 C 153.520 106.993,155.140 106.411,155.800 106.073 C 158.700 104.588,169.099 102.344,182.800 100.245 C 195.680 98.273,202.810 98.118,213.800 99.574 M376.500 143.829 C 377.325 144.611,378.000 145.442,378.000 145.676 C 378.000 145.909,377.190 145.316,376.200 144.356 C 375.210 143.397,374.400 142.564,374.400 142.506 C 374.400 142.099,375.219 142.614,376.500 143.829 M382.223 153.792 C 383.322 154.436,384.072 155.232,384.360 156.057 C 384.947 157.740,384.653 157.975,383.983 156.359 C 383.677 155.620,382.706 154.615,381.651 153.946 C 379.435 152.541,379.883 152.421,382.223 153.792 M393.626 182.279 C 394.258 182.652,394.881 183.233,395.010 183.569 C 395.168 183.981,394.942 183.907,394.322 183.345 C 393.815 182.885,393.040 182.310,392.600 182.067 C 392.160 181.823,391.952 181.619,392.138 181.612 C 392.324 181.605,392.994 181.905,393.626 182.279 M138.635 195.027 C 139.822 195.372,141.020 195.979,141.298 196.375 C 141.844 197.155,144.984 199.637,146.892 200.797 C 152.035 203.925,151.741 222.187,146.507 224.671 C 145.723 225.043,144.950 225.786,144.742 226.366 C 142.449 232.765,124.763 232.219,119.906 225.600 C 118.857 224.170,117.374 222.370,116.611 221.600 C 113.363 218.320,113.343 207.434,116.581 204.887 C 117.123 204.460,117.787 203.591,118.056 202.956 C 118.823 201.145,122.426 197.600,123.499 197.600 C 124.008 197.600,124.532 197.322,124.662 196.983 C 125.546 194.679,133.573 193.556,138.635 195.027 M187.933 266.700 C 187.775 295.064,187.730 294.285,189.582 295.364 C 190.893 296.128,191.561 296.164,202.382 296.067 C 217.188 295.934,219.587 295.632,224.000 293.352 C 225.881 292.381,228.640 291.337,230.176 291.017 C 232.886 290.452,234.870 289.385,235.923 287.925 C 236.210 287.526,236.645 287.200,236.889 287.200 C 237.134 287.200,237.816 286.717,238.407 286.126 C 238.997 285.536,240.345 284.591,241.401 284.026 C 242.890 283.231,243.559 282.533,244.379 280.922 C 244.960 279.779,245.751 278.496,246.135 278.071 C 247.056 277.054,244.493 275.237,240.944 274.389 C 239.445 274.031,238.118 273.391,237.262 272.615 C 236.415 271.846,234.664 270.996,232.491 270.301 C 228.441 269.003,225.456 267.578,224.493 266.483 C 223.683 265.561,221.062 264.160,219.533 263.831 C 218.946 263.705,217.481 262.701,216.277 261.601 C 215.073 260.500,213.954 259.600,213.790 259.600 C 212.718 259.600,206.568 256.046,206.030 255.116 C 205.686 254.519,204.503 253.574,203.402 253.014 C 200.166 251.370,199.076 250.518,198.417 249.119 C 198.002 248.238,197.464 247.755,196.798 247.664 C 195.674 247.510,194.052 246.372,191.923 244.243 C 190.903 243.223,190.126 242.800,189.273 242.800 L 188.066 242.800 187.933 266.700 M138.415 269.032 C 139.414 269.349,140.786 270.101,141.466 270.704 C 144.176 273.108,145.297 274.000,145.610 274.000 C 146.123 274.000,148.400 276.023,148.400 276.478 C 148.400 276.702,148.971 278.081,149.669 279.543 C 152.206 284.857,152.109 291.645,149.421 296.986 C 148.110 299.588,143.905 304.000,142.734 304.000 C 142.356 304.000,141.945 304.166,141.819 304.369 C 141.694 304.572,141.008 304.863,140.295 305.015 C 139.583 305.166,138.035 305.743,136.856 306.295 C 134.395 307.448,129.439 307.466,128.098 306.327 C 127.148 305.520,123.443 304.000,122.426 304.000 C 121.384 304.000,118.400 301.058,118.400 300.031 C 118.400 299.608,117.674 298.641,116.786 297.881 C 115.204 296.527,114.972 296.048,113.743 291.600 C 112.437 286.872,113.715 280.943,116.649 278.111 C 117.612 277.182,118.400 276.072,118.400 275.645 C 118.400 274.886,121.832 272.000,122.735 272.000 C 122.971 272.000,123.595 271.568,124.123 271.041 C 126.929 268.235,133.152 267.360,138.415 269.032 M5.970 319.700 C 6.503 320.305,6.825 320.800,6.685 320.800 C 6.296 320.800,4.800 319.100,4.800 318.658 C 4.800 318.443,4.845 318.342,4.900 318.433 C 4.955 318.525,5.436 319.095,5.970 319.700 M389.991 323.100 C 389.986 323.265,389.611 323.850,389.158 324.400 L 388.333 325.400 389.053 324.100 C 389.777 322.792,390.008 322.546,389.991 323.100 M343.656 418.434 C 343.136 418.855,342.877 419.200,343.079 419.200 C 343.615 419.200,345.034 418.100,344.799 417.867 C 344.690 417.758,344.175 418.013,343.656 418.434 M337.557 428.652 C 337.251 429.021,336.460 429.558,335.800 429.846 C 334.777 430.292,334.729 430.371,335.478 430.384 C 336.412 430.401,338.766 428.635,338.357 428.224 C 338.223 428.090,337.863 428.283,337.557 428.652 M332.618 439.166 C 332.003 440.354,330.167 441.621,329.120 441.579 C 328.834 441.568,329.268 441.282,330.085 440.943 C 331.119 440.514,331.786 439.866,332.285 438.806 C 332.678 437.970,333.056 437.434,333.124 437.616 C 333.193 437.797,332.965 438.495,332.618 439.166 M327.068 449.863 C 326.300 451.338,324.858 452.637,323.600 452.985 C 322.702 453.234,322.724 453.183,323.817 452.487 C 325.189 451.614,327.200 449.364,327.200 448.703 C 327.200 448.463,327.303 448.370,327.429 448.496 C 327.556 448.622,327.393 449.237,327.068 449.863 M75.303 458.771 C 75.154 458.999,72.800 456.731,72.800 456.359 C 72.800 456.199,73.388 456.638,74.107 457.334 C 74.826 458.030,75.364 458.677,75.303 458.771 M320.800 460.199 C 320.800 460.588,317.900 463.600,317.526 463.600 C 317.087 463.600,320.045 460.033,320.500 460.013 C 320.665 460.006,320.800 460.089,320.800 460.199 M92.361 490.002 C 92.884 490.006,94.964 491.972,94.460 491.986 C 93.752 492.004,91.192 489.435,91.227 488.740 C 91.242 488.443,91.449 488.605,91.688 489.100 C 91.927 489.595,92.230 490.001,92.361 490.002 M235.402 629.198 C 235.003 629.639,234.530 630.000,234.352 630.000 C 234.174 630.000,234.427 629.586,234.914 629.080 C 235.990 627.963,236.425 628.068,235.402 629.198 M168.005 633.600 C 168.175 633.600,168.420 633.874,168.548 634.209 C 168.732 634.687,168.633 634.735,168.091 634.434 C 166.989 633.821,165.200 632.010,165.200 631.508 C 165.200 631.255,165.761 631.622,166.447 632.324 C 167.134 633.026,167.834 633.600,168.005 633.600 " stroke="none" fill="#9ec136" fill-rule="evenodd"></path><path id="path2" d="M44.598 107.602 C 43.575 108.732,44.010 108.837,45.086 107.720 C 45.573 107.214,45.826 106.800,45.648 106.800 C 45.470 106.800,44.997 107.161,44.598 107.602 M375.993 142.052 C 376.759 142.519,377.625 143.193,377.918 143.551 C 378.351 144.078,378.421 144.088,378.294 143.600 C 378.125 142.947,375.753 141.199,375.041 141.201 C 374.798 141.202,375.227 141.585,375.993 142.052 M382.835 153.312 C 383.579 153.814,384.413 154.669,384.688 155.212 C 384.963 155.755,385.187 155.930,385.185 155.600 C 385.181 154.816,384.028 153.410,382.926 152.847 C 381.456 152.095,381.406 152.349,382.835 153.312 M167.391 181.162 C 162.376 182.406,161.357 183.949,161.979 189.356 C 162.476 193.682,162.643 221.573,162.485 274.228 C 162.421 295.363,162.498 312.989,162.654 313.397 C 162.811 313.805,163.673 314.873,164.569 315.769 L 166.200 317.400 193.200 317.400 L 220.200 317.400 222.200 316.333 C 224.535 315.088,228.460 314.003,230.658 313.994 C 234.954 313.978,242.541 311.240,244.359 309.050 C 244.659 308.688,246.097 308.025,247.553 307.577 C 250.600 306.640,251.372 306.150,251.769 304.898 C 251.926 304.404,252.267 303.998,252.527 303.996 C 252.787 303.993,253.900 303.275,255.000 302.400 C 256.100 301.525,257.195 300.807,257.434 300.804 C 257.936 300.799,261.600 297.027,261.600 296.515 C 261.600 296.326,262.477 295.395,263.549 294.446 C 265.760 292.486,268.400 289.181,268.400 288.371 C 268.400 288.073,269.411 286.820,270.647 285.586 C 271.883 284.353,273.123 282.726,273.404 281.972 C 274.694 278.506,275.033 277.779,275.500 277.480 C 275.775 277.304,276.000 276.986,276.000 276.772 C 276.000 276.559,276.455 275.664,277.010 274.783 C 279.733 270.470,281.339 250.867,279.846 240.170 C 279.541 237.987,279.073 234.400,278.807 232.200 C 278.150 226.769,277.720 225.260,276.468 223.993 C 275.776 223.292,274.990 221.590,274.235 219.156 C 272.785 214.479,271.923 212.873,270.180 211.600 C 269.415 211.041,268.649 210.037,268.444 209.324 C 267.820 207.149,266.211 205.344,258.001 197.600 C 255.513 195.253,254.363 194.401,253.666 194.387 C 252.816 194.371,251.918 193.674,251.073 192.375 C 250.627 191.689,249.512 191.039,247.703 190.409 C 243.509 188.948,240.735 187.571,239.131 186.155 C 238.079 185.226,237.115 184.788,235.731 184.609 C 234.669 184.472,230.110 183.607,225.600 182.688 L 217.400 181.017 193.000 180.939 C 179.580 180.897,168.056 180.997,167.391 181.162 M216.543 199.343 C 223.684 200.112,227.106 200.959,228.200 202.230 C 229.083 203.255,231.512 204.400,232.803 204.400 C 234.142 204.400,236.542 205.818,239.261 208.215 C 240.657 209.447,242.439 210.717,243.221 211.039 C 244.008 211.363,244.980 212.198,245.400 212.912 C 245.818 213.620,246.575 214.650,247.084 215.200 C 247.593 215.750,248.109 216.515,248.231 216.900 C 248.354 217.285,248.696 217.600,248.991 217.600 C 249.891 217.600,251.534 219.900,253.454 223.848 C 254.458 225.911,255.419 227.600,255.590 227.600 C 259.691 227.600,259.526 261.896,255.393 268.679 C 254.428 270.263,253.145 273.141,252.543 275.074 C 251.921 277.067,251.068 278.939,250.573 279.395 C 250.093 279.838,249.215 280.635,248.624 281.167 C 248.032 281.699,247.207 282.801,246.791 283.617 C 245.919 285.326,243.856 287.200,242.846 287.200 C 242.466 287.200,241.608 287.975,240.940 288.923 C 239.726 290.645,234.217 294.000,232.603 294.000 C 232.231 294.000,231.183 294.637,230.274 295.415 C 229.365 296.193,228.167 296.921,227.611 297.033 C 227.055 297.145,225.970 297.399,225.200 297.598 C 217.340 299.627,191.875 300.631,187.715 299.076 C 182.003 296.941,182.304 298.946,182.560 264.772 C 182.679 248.837,182.827 228.420,182.888 219.400 C 183.010 201.563,182.934 202.146,185.351 200.490 C 188.525 198.316,202.294 197.809,216.543 199.343 M131.200 199.204 C 130.210 199.375,128.281 199.893,126.913 200.357 C 125.545 200.821,123.992 201.200,123.462 201.200 C 122.219 201.200,121.836 201.714,121.059 204.426 C 120.708 205.650,119.966 207.180,119.411 207.826 C 118.721 208.628,118.388 209.507,118.361 210.600 C 118.338 211.480,118.195 212.649,118.042 213.199 C 117.780 214.141,118.802 216.891,120.571 220.000 C 120.884 220.550,121.545 221.765,122.041 222.700 C 122.536 223.635,123.170 224.400,123.448 224.400 C 123.727 224.400,124.201 224.752,124.502 225.182 C 126.754 228.397,141.600 228.405,141.600 225.191 C 141.600 224.265,143.091 222.737,145.092 221.613 C 147.218 220.418,147.221 220.407,147.491 214.123 C 147.869 205.321,145.556 202.096,137.135 199.679 C 133.843 198.735,133.898 198.739,131.200 199.204 M132.000 273.049 C 123.351 275.345,121.945 276.057,121.224 278.506 C 120.950 279.438,120.261 280.693,119.693 281.295 C 117.995 283.095,116.559 287.838,117.246 289.378 C 117.577 290.119,119.118 292.979,120.924 296.200 C 121.294 296.860,121.859 298.078,122.180 298.906 C 122.501 299.734,122.997 300.469,123.282 300.540 C 123.567 300.611,125.004 301.059,126.475 301.535 C 132.063 303.342,140.849 302.212,142.248 299.506 C 142.568 298.889,143.585 297.836,144.510 297.166 C 147.448 295.038,147.745 294.225,147.774 288.244 C 147.805 282.039,147.780 281.978,143.586 277.759 C 140.708 274.864,140.330 274.648,136.728 273.840 C 136.138 273.707,135.386 273.329,135.057 272.999 C 134.727 272.670,134.399 272.415,134.329 272.432 C 134.258 272.450,133.210 272.727,132.000 273.049 M0.700 305.082 C 1.195 305.178,2.005 305.178,2.500 305.082 C 2.995 304.987,2.590 304.909,1.600 304.909 C 0.610 304.909,0.205 304.987,0.700 305.082 M395.585 308.435 C 395.278 309.178,394.557 309.916,393.832 310.232 C 393.154 310.527,392.837 310.776,393.126 310.784 C 394.395 310.822,396.962 308.029,396.283 307.350 C 396.187 307.253,395.873 307.742,395.585 308.435 M372.914 361.480 C 372.427 361.986,372.174 362.400,372.352 362.400 C 372.742 362.400,374.198 360.845,373.964 360.677 C 373.874 360.613,373.401 360.974,372.914 361.480 M327.273 450.999 C 327.022 451.551,326.228 452.361,325.508 452.799 C 324.003 453.717,324.304 453.877,325.942 453.030 C 326.927 452.521,328.264 450.531,327.880 450.147 C 327.797 450.064,327.524 450.448,327.273 450.999 M321.200 461.458 C 321.200 461.673,320.833 462.243,320.384 462.725 C 319.936 463.206,319.752 463.600,319.975 463.600 C 320.513 463.600,321.780 461.647,321.454 461.321 C 321.314 461.181,321.200 461.243,321.200 461.458 M85.944 480.776 C 86.464 481.229,87.079 481.600,87.311 481.600 C 87.803 481.600,87.779 481.580,86.200 480.655 L 85.000 479.953 85.944 480.776 M90.025 489.106 C 89.948 490.639,93.447 493.886,94.279 493.054 C 94.419 492.914,94.216 492.800,93.827 492.800 C 93.050 492.800,90.894 490.680,90.378 489.407 C 90.198 488.963,90.039 488.828,90.025 489.106 M165.206 633.906 C 165.200 634.417,167.462 635.997,168.200 635.997 C 168.420 635.997,167.970 635.615,167.200 635.148 C 166.430 634.681,165.668 634.097,165.506 633.850 C 165.299 633.532,165.210 633.549,165.206 633.906 " stroke="none" fill="#0a0d07" fill-rule="evenodd"></path><path id="path3" d="M192.000 99.029 C 177.224 100.722,159.524 104.166,155.800 106.073 C 155.140 106.411,153.520 106.993,152.200 107.366 C 150.880 107.739,148.810 108.327,147.600 108.672 C 146.390 109.017,143.960 110.022,142.200 110.905 C 135.190 114.422,134.360 114.800,133.649 114.800 C 133.242 114.800,132.227 115.343,131.392 116.006 C 130.557 116.670,128.777 117.769,127.437 118.449 C 126.097 119.130,124.910 119.803,124.800 119.945 C 124.690 120.088,123.925 120.708,123.100 121.323 L 121.600 122.441 121.600 126.230 C 121.600 129.757,121.696 130.211,122.985 132.770 C 123.746 134.282,124.547 136.624,124.765 137.974 C 125.222 140.813,126.920 146.572,127.795 148.249 C 128.125 148.882,128.396 149.631,128.398 149.914 C 128.399 150.197,128.653 150.827,128.962 151.314 C 129.272 151.801,129.996 153.730,130.572 155.600 C 131.147 157.470,131.900 159.900,132.244 161.000 C 132.588 162.100,133.270 163.630,133.760 164.400 C 134.806 166.045,138.400 174.189,138.400 174.915 C 138.400 175.190,139.120 176.286,140.000 177.351 C 140.880 178.416,141.600 179.520,141.600 179.805 C 141.600 180.559,145.092 187.227,145.762 187.753 C 146.646 188.447,148.400 191.239,148.403 191.956 C 148.404 192.310,149.753 194.397,151.402 196.594 C 153.050 198.791,154.693 201.221,155.053 201.994 C 156.073 204.185,159.383 207.274,159.070 205.743 C 158.941 205.114,158.679 203.790,158.488 202.800 C 158.296 201.810,157.711 200.190,157.186 199.200 C 156.661 198.210,155.955 196.320,155.616 195.000 C 155.044 192.773,154.877 192.545,153.300 191.832 C 151.944 191.219,151.598 190.854,151.591 190.032 C 151.586 189.464,151.246 188.259,150.835 187.354 C 150.424 186.448,149.967 185.162,149.821 184.495 C 149.492 182.996,148.594 182.173,146.897 181.812 C 145.319 181.477,144.800 180.611,144.800 178.312 C 144.800 174.769,142.371 170.010,140.558 170.002 C 140.314 170.001,139.718 168.245,139.233 166.100 C 137.598 158.879,137.325 158.292,135.440 157.941 C 134.521 157.770,133.441 153.570,133.038 148.600 C 132.624 143.497,131.815 141.373,130.008 140.650 L 128.509 140.050 128.298 136.125 C 128.181 133.966,127.795 131.409,127.440 130.442 C 125.238 124.447,126.404 121.245,130.800 121.213 C 133.279 121.195,135.028 120.342,136.407 118.477 C 137.272 117.305,138.377 116.841,143.800 115.369 C 147.696 114.312,148.242 114.021,148.893 112.656 C 149.594 111.186,151.880 110.682,160.950 109.997 C 165.389 109.662,168.958 108.403,171.085 106.422 C 172.871 104.757,197.739 103.797,215.000 104.726 C 232.059 105.644,231.508 105.581,231.776 106.648 C 232.268 108.609,234.749 109.312,245.895 110.652 C 250.754 111.236,251.624 111.446,251.826 112.083 C 252.268 113.476,255.224 114.866,260.509 116.168 C 265.425 117.379,265.712 117.505,266.202 118.670 C 266.869 120.256,268.243 121.200,269.885 121.200 C 270.603 121.200,272.138 121.560,273.296 122.000 C 274.453 122.440,275.686 122.800,276.036 122.800 C 276.386 122.800,277.151 123.678,277.735 124.751 C 278.792 126.693,279.664 127.293,282.200 127.823 C 284.547 128.314,284.800 128.460,284.806 129.327 C 284.815 130.619,285.238 131.083,287.214 131.973 C 289.639 133.066,290.975 134.000,293.627 136.458 C 294.866 137.607,296.762 139.012,297.840 139.580 C 299.336 140.368,300.037 141.073,300.800 142.556 C 301.564 144.041,302.220 144.701,303.581 145.350 C 304.726 145.897,305.631 146.699,306.117 147.600 C 307.211 149.624,308.821 151.200,309.795 151.200 C 310.860 151.200,311.596 151.920,311.613 152.980 C 311.621 153.431,312.160 154.520,312.812 155.400 C 313.464 156.280,314.265 157.572,314.592 158.271 C 314.919 158.970,315.594 159.667,316.093 159.821 C 317.460 160.241,318.138 161.167,318.920 163.683 C 319.655 166.045,321.061 167.600,322.463 167.600 C 323.295 167.600,323.672 168.362,324.393 171.503 C 325.143 174.773,326.206 176.654,327.572 177.130 C 328.841 177.573,329.731 179.162,330.245 181.898 C 330.763 184.661,332.251 187.441,333.484 187.952 C 334.604 188.416,334.658 188.577,335.685 194.632 C 336.784 201.107,337.166 201.916,339.558 202.835 C 340.236 203.096,340.570 204.969,342.174 217.535 C 343.141 225.100,343.997 228.213,345.440 229.400 C 346.845 230.556,347.580 250.495,346.584 260.430 C 346.008 266.177,345.803 266.904,344.649 267.310 C 344.222 267.461,343.590 271.319,343.946 271.600 C 345.583 272.889,346.700 276.083,347.057 280.491 L 347.293 283.423 345.625 284.930 C 344.708 285.759,343.472 286.651,342.879 286.914 C 342.285 287.176,341.587 287.593,341.328 287.839 C 341.048 288.105,338.515 288.376,335.128 288.504 C 331.887 288.626,328.184 289.014,326.600 289.397 C 323.430 290.163,319.917 290.001,315.600 288.889 C 314.014 288.480,311.752 288.251,309.800 288.300 C 308.040 288.345,304.440 288.116,301.800 287.791 C 299.160 287.466,294.660 286.922,291.800 286.583 C 288.940 286.243,284.579 285.515,282.108 284.965 L 277.617 283.964 276.428 284.843 C 274.544 286.236,274.619 286.679,276.736 286.669 C 278.844 286.658,286.524 287.374,291.562 288.049 C 293.656 288.330,295.869 288.942,297.428 289.672 C 299.791 290.778,300.284 290.853,306.196 291.011 C 309.642 291.103,314.742 291.372,317.530 291.608 C 321.093 291.910,323.908 291.913,327.000 291.619 C 329.420 291.389,333.470 291.200,336.000 291.199 C 340.996 291.197,341.486 291.034,344.354 288.430 C 345.099 287.753,345.909 287.199,346.154 287.197 C 347.855 287.187,348.480 284.646,348.798 276.447 C 348.969 272.061,349.212 268.304,349.339 268.098 C 351.231 265.037,351.029 240.580,348.993 226.201 C 348.650 223.780,348.102 219.914,347.774 217.609 C 347.392 214.919,346.764 212.483,346.021 210.809 C 345.384 209.374,344.758 207.570,344.630 206.800 C 344.294 204.788,341.658 196.382,340.991 195.200 C 339.811 193.108,338.504 190.099,337.603 187.400 C 336.611 184.430,334.631 180.489,332.743 177.728 C 332.114 176.808,331.600 175.756,331.600 175.390 C 331.600 174.688,330.391 172.747,329.114 171.400 C 328.697 170.960,327.359 168.890,326.141 166.800 C 324.923 164.710,323.442 162.460,322.850 161.800 C 322.258 161.140,320.933 159.335,319.905 157.788 C 318.877 156.242,317.491 154.574,316.824 154.081 C 316.158 153.589,315.319 152.604,314.960 151.893 C 314.237 150.461,311.462 147.548,303.821 140.200 C 298.040 134.641,294.791 131.816,293.593 131.305 C 292.954 131.033,291.644 130.023,290.682 129.061 C 289.720 128.099,288.048 126.798,286.966 126.170 C 285.885 125.543,284.940 124.888,284.867 124.715 C 284.793 124.542,284.397 124.400,283.986 124.400 C 283.575 124.400,282.630 123.773,281.885 123.007 C 280.687 121.773,274.050 118.000,273.078 118.000 C 272.873 118.000,272.116 117.482,271.395 116.849 C 270.674 116.216,269.210 115.378,268.142 114.987 C 266.218 114.282,261.956 112.345,260.800 111.650 C 258.366 110.186,252.603 108.000,251.179 108.000 C 250.742 108.000,248.814 107.357,246.893 106.572 C 242.585 104.811,234.279 102.684,228.297 101.810 C 225.824 101.448,222.900 100.976,221.800 100.761 C 212.097 98.859,199.749 98.142,192.000 99.029 M161.333 170.170 C 158.831 171.283,157.491 173.764,158.900 174.676 C 159.175 174.854,176.320 175.096,197.000 175.213 C 226.397 175.380,234.878 175.539,235.874 175.943 C 237.333 176.535,238.400 177.951,238.400 179.295 C 238.400 180.333,241.079 181.200,244.286 181.200 C 246.369 181.200,247.931 181.778,248.324 182.694 C 249.609 185.694,251.454 186.757,256.609 187.463 C 258.383 187.706,258.387 187.711,258.639 189.610 C 258.921 191.735,259.464 192.183,262.277 192.609 C 264.321 192.918,264.648 193.284,265.001 195.652 C 265.275 197.496,265.285 197.506,267.054 197.705 C 269.480 197.978,270.296 198.831,270.621 201.429 C 270.913 203.769,271.197 204.145,272.998 204.577 C 274.672 204.979,275.138 205.464,275.451 207.132 C 275.601 207.930,276.055 209.127,276.460 209.792 C 276.865 210.456,277.198 211.301,277.199 211.669 C 277.199 212.072,277.731 212.513,278.537 212.779 C 280.677 213.486,281.600 214.856,281.600 217.330 C 281.600 218.498,281.767 220.431,281.971 221.627 C 282.174 222.822,282.455 224.655,282.595 225.700 C 282.816 227.350,282.972 227.600,283.780 227.600 C 286.037 227.600,286.607 228.760,286.520 233.169 C 286.446 236.951,286.502 237.269,287.420 238.260 C 287.959 238.841,288.400 239.531,288.400 239.793 C 288.400 240.254,290.200 240.268,293.466 239.831 C 294.890 239.640,295.778 240.360,296.198 242.043 C 296.647 243.843,303.198 244.620,307.456 243.379 C 308.255 243.146,308.330 243.313,308.590 245.898 L 308.868 248.666 310.734 249.117 C 311.760 249.366,313.635 249.687,314.900 249.830 C 316.872 250.055,317.200 250.210,317.200 250.918 C 317.200 252.585,318.129 254.400,318.980 254.398 C 319.431 254.397,320.610 254.661,321.600 254.986 C 322.590 255.310,324.030 255.673,324.800 255.793 C 326.850 256.113,327.236 256.493,327.490 258.442 C 327.763 260.527,328.069 260.786,330.274 260.794 C 332.448 260.802,333.948 261.391,334.314 262.379 C 334.755 263.570,336.554 262.579,336.731 261.048 C 337.025 258.498,335.874 257.263,331.449 255.374 C 329.314 254.463,328.610 253.951,328.306 253.088 C 327.920 251.993,326.216 250.800,325.040 250.800 C 322.171 250.800,320.365 249.906,319.037 247.830 C 317.601 245.586,315.336 244.338,311.800 243.844 C 310.670 243.686,309.906 243.264,309.200 242.408 C 307.918 240.854,304.073 238.993,301.000 238.439 C 299.574 238.182,298.438 237.740,298.200 237.350 C 297.334 235.928,295.904 234.400,295.440 234.400 C 294.692 234.400,293.288 232.278,292.993 230.702 C 292.600 228.611,291.395 226.892,289.876 226.258 L 288.528 225.694 288.019 221.347 C 287.286 215.075,285.794 211.489,283.689 210.944 C 282.525 210.642,282.113 209.846,281.765 207.224 C 281.520 205.371,281.299 204.981,279.974 204.055 C 279.142 203.475,278.043 202.311,277.531 201.469 C 275.737 198.519,273.111 195.179,272.204 194.692 C 271.352 194.235,269.589 192.248,267.877 189.816 C 267.229 188.895,261.904 186.000,260.857 186.000 C 260.626 186.000,260.086 185.205,259.656 184.234 C 258.758 182.203,257.985 181.687,255.316 181.339 C 252.657 180.992,252.136 180.639,251.727 178.908 C 251.248 176.881,249.243 175.804,244.526 175.042 C 241.207 174.505,240.766 174.325,239.457 172.977 C 238.426 171.915,237.486 171.392,236.112 171.111 C 235.060 170.897,233.480 170.532,232.600 170.300 C 229.884 169.586,162.923 169.464,161.333 170.170 M190.741 206.300 C 189.973 208.058,189.944 208.463,190.365 211.716 C 190.644 213.875,190.716 217.271,190.553 220.520 C 190.226 227.051,190.280 227.140,194.196 226.401 L 196.800 225.909 196.806 223.655 C 196.814 220.858,197.145 220.271,198.522 220.616 C 201.244 221.299,226.001 221.420,226.000 220.750 C 226.000 220.060,227.522 219.596,229.750 219.605 C 231.796 219.614,232.800 220.028,232.800 220.863 C 232.800 221.286,233.160 222.338,233.600 223.200 C 234.040 224.062,234.400 225.024,234.400 225.337 C 234.400 225.748,235.097 225.962,236.900 226.104 C 239.963 226.347,245.758 227.505,247.443 228.211 C 248.671 228.726,248.692 228.716,249.119 227.323 C 249.672 225.523,249.057 224.400,247.519 224.400 C 246.120 224.400,244.962 223.143,244.641 221.275 C 244.303 219.312,243.227 218.116,241.508 217.794 C 240.186 217.546,239.200 216.415,239.200 215.145 C 239.200 214.291,237.363 213.225,235.800 213.173 C 233.524 213.098,232.342 212.696,231.838 211.826 C 231.597 211.410,231.085 210.739,230.700 210.335 C 230.315 209.931,230.000 209.361,230.000 209.069 C 230.000 207.910,213.101 206.590,201.800 206.866 C 197.489 206.972,197.355 206.948,195.151 205.687 C 192.149 203.969,191.735 204.026,190.741 206.300 M217.629 213.609 C 226.305 214.090,226.667 214.152,227.006 215.220 C 227.566 216.984,226.997 217.089,215.692 217.306 C 204.822 217.514,202.192 217.848,199.039 219.421 C 197.436 220.220,197.386 220.198,196.863 218.454 C 196.264 216.454,196.272 214.288,196.880 213.680 C 197.488 213.072,207.346 213.038,217.629 213.609 M189.805 241.150 C 188.216 241.491,187.903 242.800,189.411 242.800 C 190.105 242.800,190.985 243.305,191.923 244.243 C 194.052 246.372,195.674 247.510,196.798 247.664 C 197.464 247.755,198.002 248.238,198.417 249.119 C 199.076 250.518,200.166 251.370,203.402 253.014 C 204.503 253.574,205.686 254.519,206.030 255.116 C 206.568 256.046,212.718 259.600,213.790 259.600 C 213.954 259.600,215.073 260.500,216.277 261.601 C 217.481 262.701,218.946 263.705,219.533 263.831 C 221.062 264.160,223.683 265.561,224.493 266.483 C 225.456 267.578,228.441 269.003,232.491 270.301 C 234.664 270.996,236.415 271.846,237.262 272.615 C 238.120 273.393,239.445 274.031,240.954 274.391 C 242.249 274.701,244.049 275.456,244.954 276.070 C 247.485 277.786,248.001 277.413,246.147 275.209 C 244.755 273.556,232.211 267.603,230.114 267.601 C 229.847 267.600,229.017 267.064,228.271 266.409 C 227.525 265.754,225.764 264.696,224.358 264.057 C 222.951 263.419,220.028 261.705,217.863 260.248 C 215.698 258.792,213.590 257.600,213.179 257.600 C 212.768 257.600,211.479 256.835,210.316 255.900 C 206.296 252.670,203.632 250.800,203.051 250.800 C 202.730 250.800,201.897 250.080,201.200 249.200 C 200.503 248.320,199.768 247.600,199.567 247.600 C 198.838 247.600,195.359 244.794,193.640 242.821 C 192.672 241.709,191.682 240.821,191.440 240.847 C 191.198 240.873,190.462 241.010,189.805 241.150 M339.100 264.432 C 337.462 265.386,339.375 266.753,341.334 266.029 C 342.089 265.749,342.084 265.710,341.183 264.870 C 340.126 263.885,340.062 263.872,339.100 264.432 " stroke="none" fill="#5bbb9a" fill-rule="evenodd"></path><path id="path4" d="M263.000 50.062 C 263.440 50.303,264.025 50.781,264.300 51.126 C 264.575 51.471,264.800 51.549,264.800 51.299 C 264.800 50.791,263.246 49.593,262.611 49.612 C 262.385 49.619,262.560 49.821,263.000 50.062 M131.004 51.196 C 130.374 51.854,129.935 52.442,130.029 52.503 C 130.123 52.564,130.770 52.026,131.466 51.307 C 132.162 50.588,132.601 50.000,132.441 50.000 C 132.281 50.000,131.634 50.538,131.004 51.196 M289.233 61.721 C 289.325 61.788,289.940 62.158,290.600 62.545 L 291.800 63.247 290.856 62.424 C 290.336 61.971,289.721 61.600,289.489 61.600 C 289.257 61.600,289.142 61.654,289.233 61.721 M326.400 84.343 C 326.400 84.754,327.612 85.322,327.892 85.042 C 327.989 84.944,327.693 84.664,327.234 84.418 C 326.775 84.173,326.400 84.139,326.400 84.343 M62.344 90.823 C 61.602 91.469,61.571 91.558,62.200 91.236 C 63.557 90.542,64.222 90.013,63.744 90.006 C 63.494 90.003,62.864 90.370,62.344 90.823 M56.001 96.198 C 55.486 96.748,55.139 97.248,55.232 97.311 C 55.324 97.374,55.884 96.924,56.474 96.312 C 57.065 95.701,57.412 95.200,57.244 95.200 C 57.077 95.200,56.517 95.649,56.001 96.198 M45.700 107.688 C 45.205 107.927,44.800 108.261,44.800 108.430 C 44.800 108.684,46.985 107.822,47.567 107.338 C 47.948 107.022,46.531 107.287,45.700 107.688 M374.400 142.506 C 374.400 142.564,375.210 143.397,376.200 144.356 C 377.190 145.316,378.000 145.909,378.000 145.676 C 378.000 145.207,375.178 142.409,374.700 142.403 C 374.535 142.402,374.400 142.448,374.400 142.506 M381.651 153.946 C 382.706 154.615,383.677 155.620,383.983 156.359 C 384.653 157.975,384.947 157.740,384.360 156.057 C 384.072 155.232,383.322 154.436,382.223 153.792 C 379.883 152.421,379.435 152.541,381.651 153.946 M163.400 177.888 C 159.494 178.839,159.402 179.519,159.526 206.600 C 159.597 222.260,159.482 231.479,159.183 234.000 C 158.883 236.529,158.775 245.295,158.861 260.200 C 159.026 288.711,159.025 289.936,158.829 303.600 C 158.650 316.035,158.830 317.554,160.720 319.602 C 162.322 321.338,164.753 321.444,196.600 321.166 C 227.337 320.898,228.444 320.809,233.061 318.228 C 233.988 317.710,237.378 316.435,240.594 315.395 C 245.688 313.748,246.582 313.329,247.521 312.152 C 248.115 311.408,248.936 310.800,249.348 310.800 C 250.457 310.800,254.620 308.147,256.812 306.043 C 257.869 305.029,259.417 303.840,260.252 303.400 C 261.088 302.960,262.685 301.466,263.801 300.079 C 264.917 298.693,266.274 297.338,266.815 297.068 C 267.357 296.798,268.070 296.015,268.400 295.327 C 268.730 294.639,269.900 292.961,271.000 291.598 C 274.800 286.890,275.092 286.424,275.987 283.641 C 276.481 282.104,277.226 280.538,277.643 280.161 C 278.059 279.784,278.400 279.180,278.400 278.818 C 278.400 278.456,278.554 277.989,278.742 277.780 C 279.595 276.833,281.204 270.112,282.185 263.400 C 282.539 260.980,283.017 257.830,283.248 256.400 C 284.458 248.893,281.817 227.127,279.015 221.511 C 278.677 220.832,278.400 220.130,278.400 219.950 C 278.400 219.770,277.860 218.853,277.200 217.912 C 276.540 216.970,275.660 215.226,275.244 214.036 C 274.827 212.845,273.792 211.108,272.943 210.174 C 270.765 207.779,269.693 206.236,267.958 203.000 C 267.604 202.340,266.974 201.620,266.557 201.400 C 266.141 201.180,264.441 199.650,262.780 198.000 C 258.377 193.627,251.328 188.581,248.219 187.577 C 246.826 187.127,245.352 186.387,244.943 185.932 C 243.387 184.201,237.102 181.835,231.800 180.984 C 230.920 180.843,229.269 180.287,228.131 179.749 C 223.715 177.662,222.847 177.611,192.400 177.653 C 176.890 177.675,163.840 177.781,163.400 177.888 M225.600 182.688 C 230.110 183.607,234.669 184.472,235.731 184.609 C 237.115 184.788,238.079 185.226,239.131 186.155 C 240.735 187.571,243.509 188.948,247.703 190.409 C 249.512 191.039,250.627 191.689,251.073 192.375 C 251.918 193.674,252.816 194.371,253.666 194.387 C 254.363 194.401,255.513 195.253,258.001 197.600 C 266.211 205.344,267.820 207.149,268.444 209.324 C 268.649 210.037,269.415 211.041,270.180 211.600 C 271.923 212.873,272.785 214.479,274.235 219.156 C 274.990 221.590,275.776 223.292,276.468 223.993 C 277.720 225.260,278.150 226.769,278.807 232.200 C 279.073 234.400,279.541 237.987,279.846 240.170 C 281.339 250.867,279.733 270.470,277.010 274.783 C 276.455 275.664,276.000 276.559,276.000 276.772 C 276.000 276.986,275.775 277.304,275.500 277.480 C 275.033 277.779,274.694 278.506,273.404 281.972 C 273.123 282.726,271.883 284.353,270.647 285.586 C 269.411 286.820,268.400 288.073,268.400 288.371 C 268.400 289.181,265.760 292.486,263.549 294.446 C 262.477 295.395,261.600 296.326,261.600 296.515 C 261.600 297.027,257.936 300.799,257.434 300.804 C 257.195 300.807,256.100 301.525,255.000 302.400 C 253.900 303.275,252.787 303.993,252.527 303.996 C 252.267 303.998,251.926 304.404,251.769 304.898 C 251.372 306.150,250.600 306.640,247.553 307.577 C 246.097 308.025,244.659 308.688,244.359 309.050 C 242.541 311.240,234.954 313.978,230.658 313.994 C 228.460 314.003,224.535 315.088,222.200 316.333 L 220.200 317.400 193.200 317.400 L 166.200 317.400 164.569 315.769 C 163.673 314.873,162.811 313.805,162.654 313.397 C 162.498 312.989,162.421 295.363,162.485 274.228 C 162.643 221.573,162.476 193.682,161.979 189.356 C 161.357 183.949,162.376 182.406,167.391 181.162 C 168.056 180.997,179.580 180.897,193.000 180.939 L 217.400 181.017 225.600 182.688 M392.600 182.067 C 393.040 182.310,393.815 182.885,394.322 183.345 C 394.942 183.907,395.168 183.981,395.010 183.569 C 394.774 182.955,392.771 181.589,392.138 181.612 C 391.952 181.619,392.160 181.823,392.600 182.067 M126.750 195.401 C 125.732 195.931,124.792 196.643,124.662 196.983 C 124.532 197.322,124.008 197.600,123.499 197.600 C 122.426 197.600,118.823 201.145,118.056 202.956 C 117.787 203.591,117.123 204.460,116.581 204.887 C 113.343 207.434,113.363 218.320,116.611 221.600 C 117.374 222.370,118.857 224.170,119.906 225.600 C 124.763 232.219,142.449 232.765,144.742 226.366 C 144.950 225.786,145.723 225.043,146.507 224.671 C 151.741 222.187,152.035 203.925,146.892 200.797 C 144.984 199.637,141.844 197.155,141.298 196.375 C 139.835 194.287,130.135 193.638,126.750 195.401 M188.800 199.040 C 186.405 199.687,184.415 200.875,183.551 202.173 C 183.110 202.834,182.978 206.287,182.888 219.400 C 182.827 228.420,182.679 248.837,182.560 264.772 C 182.304 298.946,182.003 296.941,187.715 299.076 C 191.875 300.631,217.340 299.627,225.200 297.598 C 225.970 297.399,227.055 297.145,227.611 297.033 C 228.167 296.921,229.365 296.193,230.274 295.415 C 231.183 294.637,232.231 294.000,232.603 294.000 C 234.217 294.000,239.726 290.645,240.940 288.923 C 241.608 287.975,242.466 287.200,242.846 287.200 C 243.856 287.200,245.919 285.326,246.791 283.617 C 247.207 282.801,248.032 281.699,248.624 281.167 C 249.215 280.635,250.093 279.838,250.573 279.395 C 251.068 278.939,251.921 277.067,252.543 275.074 C 253.145 273.141,254.428 270.263,255.393 268.679 C 259.526 261.896,259.691 227.600,255.590 227.600 C 255.419 227.600,254.458 225.911,253.454 223.848 C 251.534 219.900,249.891 217.600,248.991 217.600 C 248.696 217.600,248.354 217.285,248.231 216.900 C 248.109 216.515,247.593 215.750,247.084 215.200 C 246.575 214.650,245.818 213.620,245.400 212.912 C 244.980 212.198,244.008 211.363,243.221 211.039 C 242.439 210.717,240.657 209.447,239.261 208.215 C 236.542 205.818,234.142 204.400,232.803 204.400 C 231.512 204.400,229.083 203.255,228.200 202.230 C 225.858 199.510,196.004 197.093,188.800 199.040 M137.135 199.679 C 145.556 202.096,147.869 205.321,147.491 214.123 C 147.221 220.407,147.218 220.418,145.092 221.613 C 143.091 222.737,141.600 224.265,141.600 225.191 C 141.600 228.405,126.754 228.397,124.502 225.182 C 124.201 224.752,123.727 224.400,123.448 224.400 C 123.170 224.400,122.536 223.635,122.041 222.700 C 121.545 221.765,120.884 220.550,120.571 220.000 C 118.802 216.891,117.780 214.141,118.042 213.199 C 118.195 212.649,118.338 211.480,118.361 210.600 C 118.388 209.507,118.721 208.628,119.411 207.826 C 119.966 207.180,120.708 205.650,121.059 204.426 C 121.836 201.714,122.219 201.200,123.462 201.200 C 123.992 201.200,125.545 200.821,126.913 200.357 C 129.084 199.621,131.816 198.998,133.535 198.847 C 133.829 198.821,135.449 199.196,137.135 199.679 M216.200 202.146 C 218.400 202.497,220.740 203.059,221.400 203.395 C 222.060 203.730,223.500 204.251,224.600 204.552 C 225.700 204.852,227.860 205.586,229.400 206.182 C 230.940 206.778,232.560 207.365,233.000 207.487 C 233.440 207.608,234.340 208.207,235.000 208.818 C 235.660 209.428,236.773 210.259,237.474 210.664 C 240.771 212.569,243.582 214.709,244.221 215.800 C 244.608 216.460,245.672 217.900,246.585 219.000 C 249.448 222.446,251.600 225.796,251.607 226.817 C 251.610 227.358,252.053 228.520,252.592 229.400 C 254.628 232.731,254.758 233.248,255.951 242.800 C 256.801 249.606,256.518 254.034,254.584 264.208 C 254.500 264.653,253.882 265.844,253.212 266.857 C 252.541 267.869,251.739 269.539,251.430 270.567 C 250.819 272.598,249.570 274.468,247.083 277.073 C 246.205 277.994,244.999 279.704,244.404 280.873 C 243.558 282.535,242.902 283.224,241.401 284.026 C 240.345 284.591,238.997 285.536,238.407 286.126 C 237.816 286.717,237.134 287.200,236.889 287.200 C 236.645 287.200,236.210 287.526,235.923 287.925 C 234.870 289.385,232.886 290.452,230.176 291.017 C 228.640 291.337,225.881 292.381,224.000 293.352 C 219.587 295.632,217.188 295.934,202.382 296.067 C 187.224 296.204,187.058 296.096,187.780 286.600 C 188.296 279.811,188.018 240.221,187.416 234.800 C 187.086 231.830,186.812 226.245,186.808 222.390 C 186.804 218.534,186.612 213.878,186.382 212.042 C 185.799 207.398,186.911 203.370,189.142 202.041 C 190.984 200.943,209.103 201.014,216.200 202.146 M397.905 204.683 C 398.402 204.779,399.122 204.775,399.505 204.675 C 399.887 204.575,399.480 204.496,398.600 204.501 C 397.720 204.505,397.407 204.587,397.905 204.683 M130.600 268.378 C 127.635 268.671,125.696 269.468,124.123 271.041 C 123.595 271.568,122.971 272.000,122.735 272.000 C 121.832 272.000,118.400 274.886,118.400 275.645 C 118.400 276.072,117.612 277.182,116.649 278.111 C 113.715 280.943,112.437 286.872,113.743 291.600 C 114.972 296.048,115.204 296.527,116.786 297.881 C 117.674 298.641,118.400 299.608,118.400 300.031 C 118.400 301.058,121.384 304.000,122.426 304.000 C 123.443 304.000,127.148 305.520,128.098 306.327 C 129.439 307.466,134.395 307.448,136.856 306.295 C 138.035 305.743,139.583 305.166,140.295 305.015 C 141.008 304.863,141.694 304.572,141.819 304.369 C 141.945 304.166,142.356 304.000,142.734 304.000 C 143.905 304.000,148.110 299.588,149.421 296.986 C 152.109 291.645,152.206 284.857,149.669 279.543 C 148.971 278.081,148.400 276.702,148.400 276.478 C 148.400 276.023,146.123 274.000,145.610 274.000 C 145.297 274.000,144.176 273.108,141.466 270.704 C 139.248 268.736,135.371 267.906,130.600 268.378 M135.057 272.999 C 135.386 273.329,136.138 273.707,136.728 273.840 C 140.330 274.648,140.708 274.864,143.586 277.759 C 147.780 281.978,147.805 282.039,147.774 288.244 C 147.745 294.225,147.448 295.038,144.510 297.166 C 143.585 297.836,142.568 298.889,142.248 299.506 C 140.849 302.212,132.063 303.342,126.475 301.535 C 125.004 301.059,123.567 300.611,123.282 300.540 C 122.997 300.469,122.501 299.734,122.180 298.906 C 121.859 298.078,121.294 296.860,120.924 296.200 C 119.118 292.979,117.577 290.119,117.246 289.378 C 116.559 287.838,117.995 283.095,119.693 281.295 C 120.261 280.693,120.950 279.438,121.224 278.506 C 121.970 275.973,124.035 275.016,134.329 272.432 C 134.399 272.415,134.727 272.670,135.057 272.999 M0.700 304.282 C 1.195 304.378,2.005 304.378,2.500 304.282 C 2.995 304.187,2.590 304.109,1.600 304.109 C 0.610 304.109,0.205 304.187,0.700 304.282 M396.069 305.113 C 395.131 307.034,395.091 307.436,395.977 306.058 C 396.451 305.320,396.785 304.561,396.719 304.371 C 396.654 304.182,396.361 304.515,396.069 305.113 M393.958 308.534 C 393.384 309.010,392.574 309.617,392.158 309.883 C 391.537 310.278,391.629 310.291,392.661 309.957 C 393.868 309.566,395.508 308.174,395.164 307.832 C 395.074 307.742,394.531 308.058,393.958 308.534 M4.800 318.658 C 4.800 319.100,6.296 320.800,6.685 320.800 C 6.825 320.800,6.503 320.305,5.970 319.700 C 5.436 319.095,4.955 318.525,4.900 318.433 C 4.845 318.342,4.800 318.443,4.800 318.658 M389.053 324.100 L 388.333 325.400 389.158 324.400 C 389.889 323.513,390.214 322.800,389.886 322.800 C 389.824 322.800,389.449 323.385,389.053 324.100 M386.800 326.400 C 386.030 326.822,385.544 327.174,385.720 327.183 C 386.144 327.205,388.400 326.032,388.400 325.790 C 388.400 325.528,388.377 325.537,386.800 326.400 M384.598 336.893 C 384.379 337.392,383.570 338.115,382.800 338.499 C 382.014 338.892,381.704 339.199,382.094 339.199 C 382.994 339.200,385.362 337.085,385.155 336.464 C 385.067 336.202,384.817 336.395,384.598 336.893 M20.812 354.611 C 20.793 355.246,21.991 356.800,22.499 356.800 C 22.749 356.800,22.671 356.575,22.326 356.300 C 21.981 356.025,21.503 355.440,21.262 355.000 C 21.021 354.560,20.819 354.385,20.812 354.611 M372.895 360.266 C 372.618 360.378,372.199 360.828,371.965 361.265 C 371.585 361.976,371.623 362.016,372.323 361.641 C 372.911 361.327,373.975 359.855,373.487 360.032 C 373.439 360.049,373.173 360.155,372.895 360.266 M367.391 371.228 C 367.247 371.683,366.560 372.402,365.864 372.826 C 365.169 373.250,364.839 373.598,365.131 373.599 C 365.765 373.600,368.000 371.444,368.000 370.831 C 368.000 370.127,367.673 370.340,367.391 371.228 M32.001 376.646 C 31.999 377.318,33.591 379.205,34.129 379.168 C 34.428 379.148,34.406 379.059,34.067 378.924 C 33.774 378.807,33.190 378.146,32.769 377.456 C 32.348 376.765,32.002 376.401,32.001 376.646 M359.800 384.022 C 358.920 384.438,358.434 384.784,358.720 384.790 C 359.302 384.801,361.600 383.684,361.600 383.390 C 361.600 383.156,361.718 383.114,359.800 384.022 M355.514 394.410 C 355.137 395.073,354.417 395.780,353.914 395.982 C 353.282 396.236,353.205 396.357,353.664 396.375 C 354.326 396.400,356.400 394.273,356.400 393.569 C 356.400 392.980,356.244 393.128,355.514 394.410 M349.951 405.446 C 349.593 406.191,349.437 406.800,349.602 406.800 C 349.940 406.800,350.993 404.453,350.754 404.234 C 350.669 404.156,350.308 404.702,349.951 405.446 M49.600 411.924 C 49.600 412.348,51.145 413.797,51.349 413.564 C 51.428 413.474,51.067 412.989,50.546 412.486 C 50.026 411.983,49.600 411.730,49.600 411.924 M344.256 417.399 C 344.122 417.748,343.425 418.289,342.706 418.601 C 341.988 418.913,341.705 419.176,342.078 419.184 C 342.874 419.203,345.116 417.384,344.749 417.017 C 344.612 416.879,344.389 417.051,344.256 417.399 M55.618 422.200 C 55.604 423.136,57.975 424.813,59.280 424.791 C 59.566 424.786,59.054 424.443,58.141 424.029 C 57.229 423.615,56.289 422.944,56.053 422.538 C 55.817 422.132,55.622 421.980,55.618 422.200 M336.987 428.200 C 336.320 428.860,335.420 429.617,334.987 429.883 C 334.336 430.282,334.417 430.295,335.451 429.961 C 336.772 429.533,338.584 427.884,338.343 427.329 C 338.264 427.148,337.654 427.540,336.987 428.200 M332.285 438.806 C 331.786 439.866,331.119 440.514,330.085 440.943 C 329.268 441.282,328.834 441.568,329.120 441.579 C 330.692 441.642,333.568 438.795,333.124 437.616 C 333.056 437.434,332.678 437.970,332.285 438.806 M67.200 445.047 C 67.200 445.267,67.464 445.796,67.787 446.224 C 68.110 446.651,68.375 446.820,68.375 446.600 C 68.375 446.380,68.110 445.851,67.787 445.424 C 67.464 444.996,67.200 444.827,67.200 445.047 M327.200 448.703 C 327.200 449.364,325.189 451.614,323.817 452.487 C 322.724 453.183,322.702 453.234,323.600 452.985 C 325.324 452.508,328.140 449.207,327.429 448.496 C 327.303 448.370,327.200 448.463,327.200 448.703 M72.800 456.359 C 72.800 456.731,75.154 458.999,75.303 458.771 C 75.364 458.677,74.826 458.030,74.107 457.334 C 73.388 456.638,72.800 456.199,72.800 456.359 M318.672 461.813 C 317.832 462.796,317.316 463.600,317.526 463.600 C 317.900 463.600,320.800 460.588,320.800 460.199 C 320.800 459.635,320.044 460.209,318.672 461.813 M84.814 477.000 C 84.795 477.698,86.368 480.000,86.864 480.000 C 87.131 480.000,86.982 479.605,86.524 479.100 C 86.076 478.605,85.510 477.840,85.267 477.400 C 85.023 476.960,84.820 476.780,84.814 477.000 M91.227 488.740 C 91.192 489.435,93.752 492.004,94.460 491.986 C 94.964 491.972,92.884 490.006,92.361 490.002 C 92.230 490.001,91.927 489.595,91.688 489.100 C 91.449 488.605,91.242 488.443,91.227 488.740 M275.600 549.932 C 274.694 550.815,274.683 550.864,275.478 550.451 C 275.960 550.201,276.473 549.805,276.618 549.571 C 277.110 548.775,276.602 548.955,275.600 549.932 M123.600 555.300 C 123.600 555.659,123.792 556.071,124.027 556.216 C 124.713 556.640,124.780 556.261,124.167 555.423 C 123.693 554.774,123.600 554.754,123.600 555.300 M252.514 595.480 C 252.027 595.986,251.774 596.400,251.952 596.400 C 252.342 596.400,253.798 594.845,253.564 594.677 C 253.474 594.613,253.001 594.974,252.514 595.480 M247.056 605.400 C 246.922 605.748,246.044 606.382,245.106 606.808 C 244.168 607.234,243.619 607.586,243.886 607.591 C 245.329 607.617,248.090 605.557,247.459 604.925 C 247.371 604.837,247.189 605.051,247.056 605.400 M240.278 617.834 C 239.660 618.365,239.325 618.800,239.533 618.800 C 240.066 618.800,241.842 617.311,241.600 617.068 C 241.490 616.958,240.895 617.303,240.278 617.834 M234.914 629.080 C 234.427 629.586,234.174 630.000,234.352 630.000 C 234.742 630.000,236.198 628.445,235.964 628.277 C 235.874 628.213,235.401 628.574,234.914 629.080 M165.200 631.508 C 165.200 632.010,166.989 633.821,168.091 634.434 C 168.633 634.735,168.732 634.687,168.548 634.209 C 168.420 633.874,168.175 633.600,168.005 633.600 C 167.834 633.600,167.134 633.026,166.447 632.324 C 165.761 631.622,165.200 631.255,165.200 631.508 M169.227 640.300 C 169.192 640.948,170.652 642.408,171.300 642.373 C 171.575 642.358,171.414 642.159,170.942 641.931 C 170.471 641.702,169.898 641.129,169.669 640.658 C 169.441 640.186,169.242 640.025,169.227 640.300 M223.284 647.015 C 222.617 647.772,223.222 647.770,224.224 647.013 C 224.809 646.570,224.852 646.426,224.400 646.428 C 224.070 646.429,223.568 646.694,223.284 647.015 " stroke="none" fill="#3c541c" fill-rule="evenodd"></path></g></svg>